/* XPM */
static char *result[] = {
/* columns rows colors chars-per-pixel */
"32 32 145 2 ",
"   c #464646",
".  c white",
"X  c #474646",
"o  c #FDFDFD",
"O  c #FEFEFE",
"+  c gray28",
"@  c #494949",
"#  c #484747",
"$  c #64534F",
"%  c #484545",
"&  c #D5CECC",
"*  c #EEEAE9",
"=  c gray30",
"-  c #5B5B5B",
";  c gray32",
":  c gray37",
">  c #444444",
",  c #584D4A",
"<  c #84625A",
"1  c #454444",
"2  c #4D4645",
"3  c #6F524C",
"4  c #8C746F",
"5  c #676767",
"6  c gray47",
"7  c gray39",
"8  c gray26",
"9  c #3F4041",
"0  c #434344",
"q  c #4E4E4E",
"w  c #5D5D5D",
"e  c #696867",
"r  c #656668",
"t  c gray45",
"y  c gray48",
"u  c #767777",
"i  c #818181",
"p  c gray51",
"a  c #646464",
"s  c #464545",
"d  c #4B4B4A",
"f  c #797A79",
"g  c gray25",
"h  c gray21",
"j  c #5C5E5E",
"k  c #8D6964",
"l  c #857471",
"z  c #7A7E7E",
"x  c gray53",
"c  c #888888",
"v  c #909090",
"b  c #908F8F",
"n  c #929292",
"m  c gray56",
"M  c #959595",
"N  c #8D8D8D",
"B  c gray54",
"V  c #8E8E8E",
"C  c #8B8B8B",
"Z  c #4F4F4E",
"A  c gray92",
"S  c #7E7F7F",
"D  c #9B9593",
"F  c #969292",
"G  c #969797",
"H  c gray60",
"J  c gray59",
"K  c #939393",
"L  c gray57",
"P  c #969595",
"I  c gray58",
"U  c #6C6D6D",
"Y  c #BDB8B6",
"T  c #E2DBDA",
"R  c #E2DDDC",
"E  c #E4E1E0",
"W  c #E7E4E3",
"Q  c #E2DEDD",
"!  c #EAE6E6",
"~  c #F4F1F0",
"^  c #F5F4F3",
"/  c gray90",
"(  c #9B9A9A",
")  c #999291",
"_  c #959493",
"`  c #959596",
"'  c #989898",
"]  c #979797",
"[  c #777979",
"{  c #887571",
"}  c #B09691",
"|  c #A1918D",
" . c #AB9E9C",
".. c #AEA4A2",
"X. c #A59996",
"o. c #AC9C99",
"O. c #B8A7A4",
"+. c #B6A39F",
"@. c #B8A29D",
"#. c #F2EEEE",
"$. c gray40",
"%. c #4F5050",
"&. c #969494",
"*. c #A0746E",
"=. c #9B8B89",
"-. c #A0A3A4",
";. c #A4A3A3",
":. c gray61",
">. c #9A9A9A",
",. c #A0A0A0",
"<. c #595B5B",
"1. c #65534E",
"2. c #6B534E",
"3. c #555555",
"4. c #484848",
"5. c #4C4C4C",
"6. c #565656",
"7. c gray42",
"8. c #A0A09F",
"9. c gray63",
"0. c gray64",
"q. c #A3A2A2",
"w. c #A6A8A8",
"e. c #7C6E6B",
"r. c #745A54",
"t. c #464544",
"y. c #505050",
"u. c gray31",
"i. c gray29",
"p. c #848484",
"a. c gray65",
"s. c #7C7C7C",
"d. c #717171",
"f. c #AEAEAE",
"g. c #A7A7A7",
"h. c #737171",
"j. c #727171",
"k. c #696B6D",
"l. c #9A736C",
"z. c #7B5F59",
"x. c gray27",
"c. c #4B4B4B",
"v. c #4A4949",
"b. c gray36",
"n. c #4F4644",
/* pixels */
"                              . .                               ",
"                              . .                               ",
"                              . .                               ",
"                              . .                               ",
"                              . .                               ",
"                              . .                               ",
"                              . .                               ",
"                              . .                               ",
"                              . .                               ",
"                        X     o O                               ",
"                              . . + +                           ",
"@     @           +   # $ X % & *                               ",
"= - ; :             > , < 1 2 3 4 @ = +                         ",
"  5 6 7   8 9 0   q w e r t 6 y u i p a >     s                 ",
"  d f g h j k l z x c v b n m M N B V C Z                   X X ",
"O A c 6 S b D F G H M J K m L P V m I L U Y T R E W Q ! ~ ^ . . ",
". / K L M ( ) _ ` ' H J n M n n ] N J b [ { } |  ...X.o.O.+.@.#.",
"    $.g %.&.*.=.-.;.:.' ' H ] >.>.J ] ,.<.                  1.2.",
"  = : 3.  4.5.5.6.7.m 8.] 9.0.0.0.0.q.w.e.r.X + X         X   t.",
"  y.3.: u.          i.p.a.s.d.f.g.h.j.k.l.z.x.X             +   ",
"  i.q c.4.      + 4.  v.b.    . .       n.x.                    ",
"                    +       + O O + + +                         ",
"                      + +     . .                               ",
"                              . .                               ",
"                              . .                               ",
"                              . .                               ",
"                              . .                               ",
"                              . .                               ",
"                              . .                               ",
"                              . .                               ",
"                              . .                               ",
"                              . .                               "
};
