/* XPM */
static char *result[] = {
/* columns rows colors chars-per-pixel */
"32 32 77 1 ",
"  c #2E3234",
". c #393939",
"X c #494D4D",
"o c gray31",
"O c gray34",
"+ c #595351",
"@ c #5F5F5F",
"# c #79554D",
"$ c #675855",
"% c #6B5D5B",
"& c #7A5750",
"* c #715853",
"= c #7B5B54",
"- c #606465",
"; c #696767",
": c #676969",
"> c #686868",
", c gray42",
"< c #6C6A6A",
"1 c #6F6F6F",
"2 c #7C6965",
"3 c #736A69",
"4 c gray45",
"5 c gray46",
"6 c #757676",
"7 c gray47",
"8 c #797979",
"9 c #7B7979",
"0 c #797A7A",
"q c #7C7C7B",
"w c #7E7E7E",
"e c #825850",
"r c #885F56",
"t c #83605C",
"y c #8F645A",
"u c #94675E",
"i c #806D6A",
"p c #976D67",
"a c #808080",
"s c #838282",
"d c gray52",
"f c #888888",
"g c #898989",
"h c gray54",
"j c #8D8D8D",
"k c #8E8E8E",
"l c #8F8E8E",
"z c #8E8F8F",
"x c gray56",
"c c #968582",
"v c #918C8B",
"b c #988A89",
"n c #909090",
"m c gray57",
"M c #929292",
"N c #939393",
"B c gray58",
"V c #959595",
"C c gray59",
"Z c #979797",
"A c #999595",
"S c #9A9797",
"D c #989898",
"F c #999898",
"G c gray60",
"H c #9B9B9B",
"J c #9B9D9D",
"K c #9D9E9E",
"L c gray62",
"P c #9FA0A0",
"I c #A0A0A0",
"U c #A1A2A3",
"Y c #A2A2A2",
"T c gray64",
"R c #A4A4A4",
"E c #A7A7A7",
"W c None",
/* pixels */
"WWWWWWWWWWWWWWWWWWWWWWWWWWWWWWWW",
"WWWWWWWWWWWWWWWWWWWWWWWWWWWWWWWW",
"WWWWWWWWWWWWWWWWWWWWWWWWWWWWWWWW",
"WWWWWWWWWWWWWWWWWWWWWWWWWWWWWWWW",
"WWWWWWWWWWWWWWWWWWWWWWWWWWWWWWWW",
"WWWWWWWWWWWWWWWWWWWWWWWWWWWWWWWW",
"WWWWWWWWWWWWWWWWWWWWWWWWWWWWWWWW",
"WWWWWWWWWWWWWWWWWWWWWWWWWWWWWWWW",
"WWWWWWWWWWWWWWWWWWWWWWWWWWWWWWWW",
"WWWWWWWWWWWWWWWWWWWWWWWWWWWWWWWW",
"WWWWWWWWWWWWWWWWWWWWWWWWWWWWWWWW",
"WWWWWWWWWWWWWWWWWWWWWWWWWWWWWWWW",
"WWWWWWWWWWWe*WWWWWWWW&WWWWWWWWWW",
"WWWWWWWWWWWoO@>15587:$uWWWWWWWWW",
"WWWWNW %t;0sfxnnMjgndXWWWWWWWWWW",
"WWWWq40vblCVCVnxCxkBM>WWWWWWWWWW",
"WWWWdkGSANBZDNNBmZjVn6=yWWWW#WWW",
"WWWW8.-cpzKYRTLHDFZGE9WWWWWWWWWW",
"WWWWWWWWW+<,wahGIPJUhWWWWWWWWWWW",
"WWWWWWWWWrWWWWWWW32iWWWWWWWWWWWW",
"WWWWWWWWWWWWWWWWWWWWWWWWWWWWWWWW",
"WWWWWWWWWWWWWWWWWWWWWWWWWWWWWWWW",
"WWWWWWWWWWWWWWWWWWWWWWWWWWWWWWWW",
"WWWWWWWWWWWWWWWWWWWWWWWWWWWWWWWW",
"WWWWWWWWWWWWWWWWWWWWWWWWWWWWWWWW",
"WWWWWWWWWWWWWWWWWWWWWWWWWWWWWWWW",
"WWWWWWWWWWWWWWWWWWWWWWWWWWWWWWWW",
"WWWWWWWWWWWWWWWWWWWWWWWWWWWWWWWW",
"WWWWWWWWWWWWWWWWWWWWWWWWWWWWWWWW",
"WWWWWWWWWWWWWWWWWWWWWWWWWWWWWWWW",
"WWWWWWWWWWWWWWWWWWWWWWWWWWWWWWWW",
"WWWWWWWWWWWWWWWWWWWWWWWWWWWWWWWW"
};
