/* XPM */
static char *result[] = {
/* columns rows colors chars-per-pixel */
"32 32 87 1 ",
"  c #282828",
". c #574B49",
"X c #534F4F",
"o c #5E504D",
"O c #4F5656",
"+ c #535353",
"@ c gray33",
"# c #545555",
"$ c #555555",
"% c #565656",
"& c gray34",
"* c #5B5A5A",
"= c #5A5D5D",
"- c gray36",
"; c #7A554C",
": c #6E5753",
"> c #75625E",
", c #646666",
"< c #66686A",
"1 c #6A6969",
"2 c #706361",
"3 c #717171",
"4 c #717272",
"5 c #787978",
"6 c #787A78",
"7 c #797A7B",
"8 c gray48",
"9 c #7E7E7E",
"0 c gray50",
"q c #87615A",
"w c #8F645C",
"e c #8C675F",
"r c #8A6A66",
"t c #8B6C68",
"y c #8D706A",
"u c #997269",
"i c #837370",
"p c #8A7470",
"a c #8A7875",
"s c #AC796E",
"d c #7E8080",
"f c #818282",
"g c gray51",
"h c #838383",
"j c #838485",
"k c #848484",
"l c gray52",
"z c #868686",
"x c gray53",
"c c #868989",
"v c #898989",
"b c gray54",
"n c #8E8E8E",
"m c gray56",
"M c #9F8A86",
"N c #9C8E8C",
"B c #8F9090",
"V c #8D9495",
"C c #909090",
"Z c gray57",
"A c #929291",
"S c #939291",
"D c #929292",
"F c #939292",
"G c #939393",
"H c #949393",
"J c #909394",
"K c #909494",
"L c gray58",
"P c #959595",
"I c gray59",
"U c #969797",
"Y c #979999",
"T c #999898",
"R c gray60",
"E c #989A9B",
"W c #9A9A9A",
"Q c gray61",
"! c #9D9D9D",
"~ c #9E9F9F",
"^ c #A0A1A1",
"/ c gray63",
"( c #A2A2A2",
") c #A4A4A4",
"_ c #A5A5A5",
"` c gray67",
"' c None",
/* pixels */
"''''''''''''''''''''''''''''''''",
"''''''''''''''''''''''''''''''''",
"''''''''''''''''''''''''''''''''",
"''''''''''''''''''''''''''''''''",
"''''''''''''''''''''''''''''''''",
"''''''''''''''''''''''''''''''''",
"''''''''''''''''''''''''''''''''",
"''''''''''''''''''''''''''''''''",
"''''''''''''''''''''''''''''''''",
"''''''''''''''''''''''''''''''''",
"''''''''''''''''''''''''''''''''",
"'''''''''q'''''''''';'''''''''''",
"''''''''''>'''+&$*-Xus''''''''''",
"''`'''''%O=34gvvzhb7#'''''''''''",
"''6@ ,tacSmPLGZPCbCC1'''''''''''",
"''5mBCJKFILPDCZPZnLAd.''''''''''",
"''l08^MNYTRRLIPZRmPHjow'''''''''",
"'''''frpVQ/()(!WTRR_k'''''''''''",
"''''''''e2<'9xmUE~(W''''''''''''",
"''''''''''''''':yi''''''''''''''",
"''''''''''''''''''''''''''''''''",
"''''''''''''''''''''''''''''''''",
"''''''''''''''''''''''''''''''''",
"''''''''''''''''''''''''''''''''",
"''''''''''''''''''''''''''''''''",
"''''''''''''''''''''''''''''''''",
"''''''''''''''''''''''''''''''''",
"''''''''''''''''''''''''''''''''",
"''''''''''''''''''''''''''''''''",
"''''''''''''''''''''''''''''''''",
"''''''''''''''''''''''''''''''''",
"''''''''''''''''''''''''''''''''"
};
