/* XPM */
static char *result[] = {
/* columns rows colors chars-per-pixel */
"32 32 87 1 ",
"  c #282828",
". c #464949",
"X c #524B49",
"o c #524D4D",
"O c #4E5252",
"+ c #575555",
"@ c #595151",
"# c #5C5452",
"$ c #595957",
"% c #585858",
"& c #5A5A5A",
"* c #5C5858",
"= c #7F544C",
"- c #615C59",
"; c #666868",
": c #6A6A6A",
"> c #6F6F6F",
", c #736461",
"< c #717171",
"1 c #737171",
"2 c #747474",
"3 c gray47",
"4 c gray48",
"5 c #7C7C7C",
"6 c gray50",
"7 c #90675E",
"8 c #92665E",
"9 c #98675E",
"0 c #906A5F",
"q c #92706C",
"w c #92726E",
"e c #8C7572",
"r c #867C79",
"t c #947874",
"y c #B17A6E",
"u c #7D7E80",
"i c #808080",
"p c #808181",
"a c #838383",
"s c #818484",
"d c #838484",
"f c #848484",
"g c #848686",
"h c #858686",
"j c #868A8A",
"k c #8A8989",
"l c #898A8A",
"z c gray54",
"x c #8A8D8E",
"c c gray55",
"v c #8D8D8D",
"b c #8E8E8E",
"n c gray56",
"m c #9B8B88",
"M c #909090",
"N c #919090",
"B c gray57",
"V c #909393",
"C c #929292",
"Z c #939393",
"A c #949493",
"S c gray58",
"D c #959595",
"F c #959696",
"G c gray59",
"H c #979797",
"J c #939899",
"K c #97999A",
"L c #989898",
"P c #999898",
"I c gray60",
"U c #9A9A9A",
"Y c #9B9B9B",
"T c #9C9B9B",
"R c #9B9E9E",
"E c gray61",
"W c #9F9F9F",
"Q c #A58D89",
"! c #A19290",
"~ c #A0A0A0",
"^ c #A0A1A1",
"/ c gray63",
"( c #A2A2A2",
") c gray64",
"_ c #A2A4A5",
"` c #A9A9A9",
"' c None",
/* pixels */
"''''''''''''''''''''''''''''''''",
"''''''''''''''''''''''''''''''''",
"''''''''''''''''''''''''''''''''",
"''''''''''''''''''''''''''''''''",
"''''''''''''''''''''''''''''''''",
"''''''''''''''''''''''''''''''''",
"''''''''''''''''''''''''''''''''",
"''''''''''''''''''''''''''''''''",
"''''''''''''''''''''''''''''''''",
"''''''''''''''''''''''''''''''''",
"''''''''''''''''''''''''''''''''",
"'''''''''7''''''''''''''''''''''",
"'''''''''y0O''$+#,-%''''''''''''",
"'''`''''X.*:<4fzgspv3'''''''''''",
"'''4& ;wtjcbGSCBSNkMB>''''''''''",
"'''5CBCJVCGDDZBBSBbSCdo'''''''''",
"'''a62^Q!KIILSHDBInSAl@'''''''''",
"''''''uqexT)~YPYYIUI(h''''''''''",
"'''''''''''ibFREW(/W_r9'''''''''",
"''''''''''''''m1''''''8'''''''''",
"''''''''''''''='''''''''''''''''",
"''''''''''''''''''''''''''''''''",
"''''''''''''''''''''''''''''''''",
"''''''''''''''''''''''''''''''''",
"''''''''''''''''''''''''''''''''",
"''''''''''''''''''''''''''''''''",
"''''''''''''''''''''''''''''''''",
"''''''''''''''''''''''''''''''''",
"''''''''''''''''''''''''''''''''",
"''''''''''''''''''''''''''''''''",
"''''''''''''''''''''''''''''''''",
"''''''''''''''''''''''''''''''''"
};
