/* XPM */
static char *result[] = {
/* columns rows colors chars-per-pixel */
"32 32 142 2 ",
"   c #464646",
".  c white",
"X  c #FEFEFE",
"o  c #FDFDFD",
"O  c #464747",
"+  c gray27",
"@  c #474646",
"#  c #4F4847",
"$  c #414141",
"%  c #4B4B4B",
"&  c gray32",
"*  c gray30",
"=  c #555555",
"-  c #6A514C",
";  c #65534F",
":  c gray26",
">  c #434343",
",  c #DADADA",
"<  c gray79",
"1  c gray28",
"2  c #484848",
"3  c #474342",
"4  c #75554F",
"5  c #5E504D",
"6  c #656565",
"7  c #717171",
"8  c #616262",
"9  c #3F4343",
"0  c #434444",
"q  c #454546",
"w  c gray34",
"e  c gray36",
"r  c #646464",
"t  c #6F6F6F",
"y  c gray46",
"u  c #797979",
"i  c gray47",
"p  c #676969",
"a  c #655754",
"s  c #7E5E57",
"d  c #464545",
"f  c #4C4C4C",
"g  c gray49",
"h  c #444444",
"j  c #393C3D",
"k  c #655958",
"l  c #815F5B",
"z  c #696767",
"x  c #797A7A",
"c  c #838282",
"v  c gray53",
"b  c gray56",
"n  c #909090",
"m  c #939393",
"M  c gray55",
"N  c #888888",
"B  c #8E8E8E",
"V  c gray52",
"C  c #484A4A",
"Z  c #F1F1F1",
"A  c #939392",
"S  c gray45",
"D  c #918C8B",
"F  c #988A89",
"G  c #8F8E8E",
"H  c #979797",
"J  c gray59",
"K  c gray57",
"L  c gray58",
"P  c #929292",
"I  c #747474",
"U  c #DED7D6",
"Y  c #EDE8E7",
"T  c #ECE8E7",
"R  c #EDEAE9",
"E  c #EAE6E6",
"W  c #E8E3E2",
"Q  c #F6F5F5",
"!  c gray92",
"~  c gray60",
"^  c #9B9898",
"/  c #999595",
"(  c #989898",
")  c #9A9A9A",
"_  c #959595",
"`  c #8D8D8D",
"'  c #757676",
"]  c #A58F8A",
"[  c #C6B0AB",
"{  c #C3B3B0",
"}  c #C6B9B7",
"|  c #C6B9B6",
" . c #C7B5B2",
".. c #B8A5A1",
"X. c #CFC3C1",
"o. c gray39",
"O. c #3F3F3F",
"+. c #595C5D",
"@. c #958481",
"#. c #976D67",
"$. c #8E8F8F",
"%. c #9C9D9D",
"&. c #A2A2A2",
"*. c #A4A4A4",
"=. c gray64",
"-. c gray62",
";. c gray61",
":. c #989797",
">. c #A7A7A7",
",. c #696868",
"<. c #64524E",
"1. c #5F514D",
"2. c #444646",
"3. c #434445",
"4. c #504D4C",
"5. c #6C6A6A",
"6. c gray40",
"7. c #868686",
"8. c #A0A0A0",
"9. c #9FA0A0",
"0. c #9B9D9D",
"q. c #A1A2A3",
"w. c #484747",
"e. c #4C4645",
"r. c #5F4F4B",
"t. c #4E4E4E",
"y. c gray33",
"u. c #5B5B5B",
"i. c #534744",
"p. c #7F5C54",
"a. c #D5D5D5",
"s. c #665F5F",
"d. c #7A6864",
"f. c #766664",
"g. c #474746",
"h. c #454444",
"j. c #494949",
"k. c #4C4342",
"l. c #4B4544",
"z. c #444242",
"x. c #474140",
"c. c #444343",
/* pixels */
"                              . .                               ",
"                              . .                               ",
"                              . .                               ",
"                              . .                               ",
"                              . .                               ",
"                              . .                               ",
"                              . .                               ",
"                              . .                               ",
"                              . .                               ",
"                              . .                               ",
"                              X o       O                       ",
"                +   @ #       . .         $                     ",
"    % & * =           - ; : > , < 1 2 2 3 4 5                   ",
"      6 7 8     9 0 q % w e r t y y u i p a s @   d             ",
"  1   f g h j k l z x c v b n n m M N B V C                     ",
". X X Z A S x D F G H H J J K b J b B L P I U Y T R E W Q . . . ",
". X . ! m B ~ ^ / m L ( ) _ L L K H ` _ K ' ] [ { } |  ...X.. X ",
"        o.O.+.@.#.$.%.&.*.=.-.;.) :.H H >.,.            1 <.1.  ",
"  1   f e w   2.3.4.5.o.6.t 7.~ 8.9.0.q.v 2 1 w.@     w.  e.r.  ",
"      t.y.u.*   i.p.e.      : a.< s.d.f.g.                h.    ",
"      j.% 1     k.l.  1 1 1   . . z.x.c.                        ",
"                              o o                               ",
"                              . .   d                           ",
"                              . .                               ",
"                              . .                               ",
"                              . .                               ",
"                              . .                               ",
"                              . .                               ",
"                              . .                               ",
"                              . .                               ",
"                              . .                               ",
"                              . .                               "
};
