/* XPM */
static char *result[] = {
/* columns rows colors chars-per-pixel */
"32 32 89 1 ",
"  c #2D2D2D",
". c gray23",
"X c #513A34",
"o c #583E3A",
"O c #60453E",
"+ c #4B4B4B",
"@ c #515151",
"# c #525250",
"$ c #515252",
"% c gray32",
"& c #634540",
"* c #674E49",
"= c #6F524C",
"- c #72504A",
"; c #78554E",
": c #7F5A52",
"> c #7A5E58",
", c #5E6060",
"< c #606060",
"1 c #646464",
"2 c #696867",
"3 c #67696B",
"4 c #6B6C6C",
"5 c gray45",
"6 c #767777",
"7 c #777777",
"8 c #777979",
"9 c gray47",
"0 c #797979",
"q c #7B7B7B",
"w c #7A7E7E",
"e c #7C7C7C",
"r c #7E7F7F",
"t c #835A52",
"y c #845E55",
"u c #8D665D",
"i c #8D6964",
"p c #9B746C",
"a c #857471",
"s c #8F7D79",
"d c #A67368",
"f c #A0746E",
"g c #7D8083",
"h c #818181",
"j c gray51",
"k c #848282",
"l c #848484",
"z c gray53",
"x c #888888",
"c c #898A89",
"v c gray54",
"b c #8B8B8B",
"n c gray55",
"m c #8D8D8D",
"M c #8E8E8E",
"N c gray56",
"B c #908F8F",
"V c #9B8B89",
"C c #909090",
"Z c gray57",
"A c #929292",
"S c #939393",
"D c #959191",
"F c #949392",
"G c #939394",
"H c gray58",
"J c #949595",
"K c #959595",
"L c #969494",
"P c #969595",
"I c gray59",
"U c #979797",
"Y c #989190",
"T c #9B9593",
"R c #989898",
"E c gray60",
"W c #9A9999",
"Q c #9A9A9A",
"! c gray61",
"~ c #A0A09F",
"^ c #A0A0A0",
"/ c gray63",
"( c #A3A2A2",
") c gray64",
"_ c #A4A3A3",
"` c #A0A3A4",
"' c gray65",
"] c #A6A8A8",
"[ c None",
/* pixels */
"[[[[[[[[[[[[[[[[[[[[[[[[[[[[[[[[",
"[[[[[[[[[[[[[[[[[[[[[[[[[[[[[[[[",
"[[[[[[[[[[[[[[[[[[[[[[[[[[[[[[[[",
"[[[[[[[[[[[[[[[[[[[[[[[[[[[[[[[[",
"[[[[[[[[[[[[[[[[[[[[[[[[[[[[[[[[",
"[[[[[[[[[[[[[[[[[[[[[[[[[[[[[[[[",
"[[[[[[[[[[[[[[[[[[[[[[[[[[[[[[[[",
"[[[[[[[[[[[[[[[[[[[[[[[[[[[[[[[[",
"[[[[[[[[[[[[[[[[[[[[[[[[[[[[[[[[",
"[[[[[[[[[[[[[[[[[[[[[[[[[[[[[[[[",
"[[[[[[[[[[[[[[[[[[[[[[[[[[[[[[[[",
"[[[[[[[[[[[[[[[[[[[[[[[[[[[[[[[[",
"[[[[[[[[[[[[u[[=>+@[[[[[[[[[[[[[",
"[[[[[[[[[%<235906hj1[[[[[[[[[[[[",
"[[c. ,iawzxCBACKnbCb#[[[[[[[[[[[",
"[[79rBTDJUHISNZPMNHZ4[[[[[[[[[[[",
"[[nZKWYFGIRIAKAAUmIB8*tOo[X&-;y[",
"[[q.$LfV`_!ERQRRRUE^[[[[[[[[[[[:",
"[[[[[[[[[eZ~E/))))(]s[[[[[[[[[[[",
"[[[[[[[[[[[m'vxzlkkgpd[[[[[[[[[[",
"[[[[[[[[[[[[[[[[[[[[[[[[[[[[[[[[",
"[[[[[[[[[[[[[[[[[[[[[[[[[[[[[[[[",
"[[[[[[[[[[[[[[[[[[[[[[[[[[[[[[[[",
"[[[[[[[[[[[[[[[[[[[[[[[[[[[[[[[[",
"[[[[[[[[[[[[[[[[[[[[[[[[[[[[[[[[",
"[[[[[[[[[[[[[[[[[[[[[[[[[[[[[[[[",
"[[[[[[[[[[[[[[[[[[[[[[[[[[[[[[[[",
"[[[[[[[[[[[[[[[[[[[[[[[[[[[[[[[[",
"[[[[[[[[[[[[[[[[[[[[[[[[[[[[[[[[",
"[[[[[[[[[[[[[[[[[[[[[[[[[[[[[[[[",
"[[[[[[[[[[[[[[[[[[[[[[[[[[[[[[[[",
"[[[[[[[[[[[[[[[[[[[[[[[[[[[[[[[["
};
