/* XPM */
static char *result[] = {
/* columns rows colors chars-per-pixel */
"32 32 68 1 ",
"  c #C84C0C",
". c #5C2306",
"X c #150801",
"o c #BC470B",
"O c black",
"+ c #6C2907",
"@ c #110601",
"# c #080300",
"$ c #020100",
"% c #100601",
"& c #090401",
"* c #582105",
"= c #120701",
"- c #180901",
"; c #552005",
": c #3E1804",
"> c #451A04",
", c #572105",
"< c #1A0A02",
"1 c #2A1003",
"2 c #361503",
"3 c #C24A0C",
"4 c #8E3609",
"5 c #9E3C0A",
"6 c #C64B0C",
"7 c #240E02",
"8 c #3A1604",
"9 c #090301",
"0 c #0B0401",
"q c #281003",
"w c #1E0B02",
"e c #210D02",
"r c #291003",
"t c #080301",
"y c #0C0501",
"u c #451B05",
"i c #200C02",
"p c #070300",
"a c #411904",
"s c #260E02",
"d c #C44B0C",
"f c #5A2206",
"g c #140801",
"h c #B8460B",
"j c #6A2807",
"k c #1D0B02",
"l c #0D0501",
"z c #030100",
"x c #1B0A02",
"c c #2E1203",
"v c #0A0401",
"b c #2C1103",
"n c #2D1103",
"m c #321303",
"M c #0E0501",
"N c #301203",
"B c #230E02",
"V c #280F02",
"C c #0F0601",
"Z c #170901",
"A c #050200",
"S c #2F1203",
"D c #4B1D05",
"F c #220D02",
"G c #461B04",
"H c #060200",
"J c #1C0B02",
"K c #170902",
/* pixels */
"        .Xo         oO+         ",
"        .Xo         oO+         ",
"        .Xo         oO+         ",
"@@@@@@@@#$%@@@@@@@@@%O&@@@@@@@@@",
"**=-;*********:O>*********,%<***",
"  123         4O5         678   ",
"  123         4O5         678   ",
"  123         4O5         678   ",
"  123         4O5         678   ",
"1190q111111111wOe111111111rty111",
"uuuuuuuuipauuuuuuuuuaOsuuuuuuuuu",
"        .Xo         oO+         ",
"        .Xo         oO+         ",
"        .Xo         oO+         ",
"ddddddddfghdddddddddhOjddddddddd",
"kkkkkkkklzxkkkkkkkkkxO%kkkkkkkkk",
"ccvybccccccccceO7cccccccccntlccc",
"  123         4O5         678   ",
"  123         4O5         678   ",
"  123         4O5         678   ",
"  123         4O5         678   ",
"mmvMNmmmmmmmmmBOVmmmmmmmmmm9Cmmm",
"mmmmmmmmZASmmmmmmmmmSOxmmmmmmmmm",
"        .Xo         oO+         ",
"        .Xo         oO+         ",
"        .Xo         oO+         ",
"        .Xo         oO+         ",
"DDDDDDDDFtGDDDDDDDDDGOrDDDDDDDDD",
"kkHtJkkkkkkkkkXOKkkkkkkkkkkA9kkk",
"  123         4O5         678   ",
"  123         4O5         678   ",
"  123         4O5         678   "
};
