/* XPM */
static char *result[] = {
/* columns rows colors chars-per-pixel */
"32 32 142 2 ",
"   c #464646",
".  c white",
"X  c #4E4D47",
"o  c #B9A952",
"O  c #FEE870",
"+  c #FEE769",
"@  c #E8D157",
"#  c #D6C155",
"$  c #B6A651",
"%  c #7D754C",
"&  c #484846",
"*  c #5D5A48",
"=  c #DEC854",
"-  c #FED22D",
";  c #FED535",
":  c #FEE459",
">  c #F0D857",
",  c #B1A251",
"<  c #575548",
"1  c #77704B",
"2  c #F1D958",
"3  c #FEDD47",
"4  c #FED027",
"5  c #FEE152",
"6  c #FEE358",
"7  c #EDAA28",
"8  c #E89819",
"9  c #F2BC37",
"0  c #F7DE58",
"q  c #AA9B50",
"w  c #494846",
"e  c #857C4C",
"r  c #FAE159",
"t  c #FDE055",
"y  c #E58F11",
"u  c #DA7D07",
"i  c #ECA624",
"p  c #D0BD54",
"a  c #565448",
"s  c #4B4A46",
"d  c #BCAB52",
"f  c #FEE458",
"g  c #FEE357",
"h  c #EED657",
"j  c #635F49",
"k  c #D6C255",
"l  c #FEDA40",
"z  c #EB9A05",
"x  c #FED73A",
"c  c #FDE257",
"v  c #F9DA4C",
"b  c #F5D141",
"n  c #F1C836",
"m  c #EDC12D",
"M  c #B9972F",
"N  c #666149",
"B  c #FEE050",
"V  c #F9C526",
"C  c #F8C425",
"Z  c #FEDF4E",
"A  c #EDC02D",
"S  c #EABA25",
"D  c #E8B41E",
"F  c #E5AF17",
"G  c #BB9323",
"H  c #6A654A",
"J  c #FADB4E",
"K  c #F6D344",
"L  c #F2CA38",
"P  c #EDC02C",
"I  c #E9B721",
"U  c #E5AF18",
"Y  c #C09622",
"T  c #FBEAA5",
"R  c #F5D144",
"E  c #F0C533",
"W  c #ECBD29",
"Q  c #E8B51F",
"!  c #EABD40",
"~  c #E7B426",
"^  c #E4AB15",
"/  c #E5AD16",
"(  c #E8B830",
")  c #DBA81A",
"_  c #E3A611",
"`  c #DC8D01",
"'  c #DD9003",
"]  c #E5AE17",
"[  c #E4A814",
"{  c #DF8C07",
"}  c #DF9208",
"|  c #E4AA14",
" . c #DFAB19",
".. c #E2A510",
"X. c #DC8F02",
"o. c #DE8606",
"O. c #DC7901",
"+. c #DC7A01",
"@. c #DE9306",
"#. c #E3A412",
"$. c #E29A0F",
"%. c #E4A914",
"&. c #DE8404",
"*. c #DE9205",
"=. c #E1AC18",
"-. c #E3A712",
";. c #DC7B01",
":. c #E0920B",
">. c #E3A511",
",. c #DD8702",
"<. c #DD8B03",
"1. c #C19722",
"2. c #DC7E01",
"3. c #E0950B",
"4. c #D1A21D",
"5. c #5E563F",
"6. c #E2A10F",
"7. c #E19D0D",
"8. c #E5AE16",
"9. c #C39921",
"0. c #A2822B",
"q. c #776638",
"w. c #4C4A44",
"e. c #C79B20",
"r. c #524E42",
"t. c #685D3C",
"y. c #E7B62C",
"u. c #BA9324",
"i. c #9D7F2C",
"p. c #826E34",
"a. c #6D603A",
"s. c #595240",
"d. c #484745",
"f. c #AF8B27",
"g. c #DEAA19",
"h. c #E2AD18",
"j. c #D7A51B",
"k. c #CC9F1E",
"l. c #BF9622",
"z. c #B18D26",
"x. c #806C35",
"c. c #FDF9EE",
/* pixels */
"                              . .                               ",
"                              . .                               ",
"                              . .                               ",
"                              . .                               ",
"                              . .                               ",
"                              . .                               ",
"                              . .                               ",
"                          X o O + @ # $ % &                     ",
"                        * = - ; : : : : : > , <                 ",
"                      1 2 3 4 5 : : 6 7 8 9 : 0 q w             ",
"                    e r : : : : : : t y u i : : : p a           ",
"                s d : f g : : : : : : : : : : : : : h j         ",
"              a k : l z z x : : : : : : : : c v b n m M         ",
"            N @ : : B V C Z : c v b n A S D F F F F F G         ",
"          H > : : c J K L P I U F F F F F F F F F F F Y         ",
". . . . T R E W Q F F F F F F F F F F F F F F F F F F ! . . . . ",
". . . . ~ F F F F F F F F F F ^ / F F F F F F F F F F ( . . . . ",
"        ) F F F F F F F F F _ ` ' ] F F [ { } | F F F  .        ",
"        ) F F F F F F F F F ..` X.] F F o.O.+.@.F F F F         ",
"        ) F F F #.$.] F F F F _ %.F F F &.O.+.*.F F F =.        ",
"        ) F F -.;.O.:.F F F F F F F F F >.,.<._ F F F 1.        ",
"        ) F F _ 2.O.3.F F F F F F F F F F F F F F F 4.5.        ",
"        ) F F F 6.7.8.F F F F F F F F F F F  .9.0.q.w.          ",
"        ) F F F F F F F e.r.t.U y.u.i.p.a.s.d.                  ",
"        f.g.h. .j.k.l.z.x.    c..                               ",
"                              . .                               ",
"                              . .                               ",
"                              . .                               ",
"                              . .                               ",
"                              . .                               ",
"                              . .                               ",
"                              . .                               "
};
