/* XPM */
static char *result[] = {
/* columns rows colors chars-per-pixel */
"32 32 64 1 ",
"  c #464646",
". c white",
"X c #FEE459",
"o c #FEDB43",
"O c #B4A451",
"+ c #514F47",
"@ c #FDC103",
"# c #FED83C",
"$ c #FEE358",
"% c #F2BB36",
"& c #D0BC54",
"* c #E07F03",
"= c #D1770A",
"- c #F1B833",
"; c #E4CE56",
": c #D8C455",
"> c #FEE253",
", c #887E4D",
"< c #FEE457",
"1 c #DC7901",
"2 c #E89402",
"3 c #FBDD51",
"4 c #F4CE3E",
"5 c #E9B822",
"6 c #E5AF17",
"7 c #756538",
"8 c #565448",
"9 c #F7D647",
"0 c #EDBF2B",
"q c #E6B019",
"w c #846F34",
"e c #FCE054",
"r c #F3CC3C",
"t c #F1D687",
"y c #E8B730",
"u c #E4AB15",
"i c #EBC24E",
"p c #D4A41C",
"a c #DC8D01",
"s c #DC8E02",
"d c #DC7A01",
"f c #DC8C02",
"g c #DAA81A",
"h c #E09D0B",
"j c #E4AC15",
"k c #DE8304",
"l c #DF9909",
"z c #E3AE18",
"x c #E3A511",
"c c #DF8908",
"v c #E3A913",
"b c #DC8A01",
"n c #E5AD16",
"m c #B08C27",
"M c #E09B0A",
"N c #DE8C06",
"B c #E2AD18",
"V c #E3A812",
"C c #D0A11D",
"Z c #9E802C",
"A c #474646",
"S c #C59A20",
"D c #4C4A44",
"F c #FBF1D8",
/* pixels */
"               ..               ",
"               ..               ",
"               ..               ",
"               ..               ",
"               ..               ",
"               ..               ",
"               ..               ",
"               ..               ",
"               ..               ",
"              XoXXXXO           ",
"            +X@#XX$%XX&         ",
"            XXXXXX*=-XX;        ",
"          :X>XXXXXXXXXXXX       ",
"         ,X<12XXXXXXX34567      ",
"       8XXXXX90q666666666w      ",
".......Xerq66666666666666t......",
"......y66666666u666666666i......",
"      p66666666as666df666g      ",
"      p66666666hj66k11l66z      ",
"      p66x1c6666666v1bn66m      ",
"      p66M1N666666666666B       ",
"      p666V6666666666CZA        ",
"      S666666D F.               ",
"               ..               ",
"               ..               ",
"               ..               ",
"               ..               ",
"               ..               ",
"               ..               ",
"               ..               ",
"               ..               ",
"               ..               "
};
