/* XPM */
static char *result[] = {
/* columns rows colors chars-per-pixel */
"32 32 63 1 ",
"  c #464646",
". c white",
"X c #FEE459",
"o c #FEDB43",
"O c #B4A451",
"+ c #514F47",
"@ c #FDC103",
"# c #FED83C",
"$ c #FEE358",
"% c #F2BB36",
"& c #D0BC54",
"* c #E07F03",
"= c #D1770A",
"- c #F1B833",
"; c #E4CE56",
": c #D8C455",
"> c #FEE253",
", c #887E4D",
"< c #FEE457",
"1 c #DC7901",
"2 c #E89402",
"3 c #FBDD51",
"4 c #F4CE3E",
"5 c #E9B822",
"6 c #E5AF17",
"7 c #756538",
"8 c #565448",
"9 c #F7D647",
"0 c #EDBF2B",
"q c #E6B019",
"w c #846F34",
"e c #FCE054",
"r c #F3CC3C",
"t c #987C2E",
"y c #D4A41C",
"u c #E4AB15",
"i c #BF9622",
"p c #DC8D01",
"a c #DC8E02",
"s c #DC7A01",
"d c #DC8C02",
"f c #DAA81A",
"g c #E09D0B",
"h c #E4AC15",
"j c #DE8304",
"k c #DF9909",
"l c #E3AE18",
"z c #E3A511",
"x c #DF8908",
"c c #E3A913",
"v c #DC8A01",
"b c #E5AD16",
"n c #B08C27",
"m c #E09B0A",
"M c #DE8C06",
"N c #E2AD18",
"B c #E3A812",
"V c #D0A11D",
"C c #9E802C",
"Z c #474646",
"A c #EABF45",
"S c #FEFCF7",
"D c #FBF1D8",
/* pixels */
"               ..               ",
"               ..               ",
"              XoXXXXO           ",
"            +X@#XX$%XX&         ",
"            XXXXXX*=-XX;        ",
"          :X>XXXXXXXXXXXX       ",
"         ,X<12XXXXXXX34567      ",
"       8XXXXX90q666666666w      ",
"       Xerq66666666666666t      ",
"      y66666666u666666666i      ",
"      y66666666pa666sd666f      ",
"      y66666666gh66j11k66l      ",
"      y66z1x6666666c1vb66n      ",
"      y66m1M666666666666N       ",
"      y666B6666666666VCZ        ",
"......A666666S.D................",
"................................",
"               ..               ",
"               ..               ",
"               ..               ",
"               ..               ",
"               ..               ",
"               ..               ",
"               ..               ",
"               ..               ",
"               ..               ",
"               ..               ",
"               ..               ",
"               ..               ",
"               ..               ",
"               ..               ",
"               ..               "
};
