/* XPM */
static char *result[] = {
/* columns rows colors chars-per-pixel */
"32 32 73 1 ",
"  c #954F0E",
". c #9B570F",
"X c #965312",
"o c #9B5612",
"O c #9C5914",
"+ c #965819",
"@ c #9A591A",
"# c #A25E1B",
"$ c #A5611E",
"% c #AB651D",
"& c #B06B1F",
"* c #A65F21",
"= c #A56422",
"- c #AA6622",
"; c #AD6924",
": c #AD6B29",
"> c #B26B25",
", c #B86F27",
"< c #B26E2A",
"1 c #AB702D",
"2 c #B57027",
"3 c #B87024",
"4 c #B5722D",
"5 c #BB742C",
"6 c #BD782E",
"7 c #B57431",
"8 c #BB7632",
"9 c #BD7A34",
"0 c #BC7C39",
"q c #C0762E",
"w c #C07631",
"e c #C37C35",
"r c #C97E34",
"t c #C37E39",
"y c #C68036",
"u c #CA8236",
"i c #C5823B",
"p c #CB853C",
"a c #CD883F",
"s c #D1863D",
"d c #D1893E",
"f c #C48340",
"g c #CA8641",
"h c #C78842",
"j c #CE8A42",
"k c #CD8B48",
"l c #D48740",
"z c #D38C43",
"x c #D88F44",
"c c #D28F48",
"v c #D59047",
"b c #D99246",
"n c #D5924A",
"m c #DA954C",
"M c #DD984F",
"N c #D79650",
"B c #DB9750",
"V c #DD9A52",
"C c #DF9F58",
"Z c #E19A4D",
"A c #E29D53",
"S c #E39F58",
"D c #E5A156",
"F c #E9A257",
"G c #E5A25A",
"H c #E9A55B",
"J c #EEAA5D",
"K c #F0AC5E",
"L c #E2A560",
"P c #EFAB61",
"I c #F2AD63",
"U c #F4B167",
"Y c #F9B66E",
/* pixels */
"gkfttft0fe4798LLCVNNNnNNncvpiyey",
"t:79ftk89t5<77GGVCCVBnccczjpaiyy",
"khiglgzpeppe0tmMBZBBnmcmnvzpyy99",
"VmnccmZnBnzmmxzxmxzzbllczjjy6522",
"AmmBZcncMnxBBmZSZmxlxllzMnduyy65",
"AmmmmZZm774589eetettsrttyyy6242&",
"ABAAmbbl:::<-;;--<<>:**-;$%$.O#.",
"BZmBnmnc87<74,;;>8<#*>5>6%#>%.O+",
"SSSSHHHDVVVVmmnmmausuq6353>>>%%&",
"AAJHHPJPUUYYIIHAmZbuepueeeq3,,&,",
"SFSFHPPPHGFHGSSHGVMbxzdzdue6,,,,",
"VcmbbMMVmmmmxzzlpzuupdxxbmaprrrq",
"GnztdpzpjzdxxsrrrurqesdZbmdprr5%",
"LCgzppapepkzzpuuupsszxzxMbapyeeq",
";--#$;;2770VGSFFFFAAAmzzdxxddxps",
"7477800000fPIIIJFFJAMmnapypsbbdd",
"hgggggkglkzAAASVmzzxjnnyeuazzzpp",
"i9eeetweett85,>@#<<fNVCbvzaapapp",
"ka5w95w8ww,>-#$#+X%4CCVnmmvjaaaz",
"kzttzttttttttett844tVNnvnzkjjzaa",
"MADHAhghfgffhpfiit0y900y98084490",
"DHHKV:1:>-:*$$=-=#$--;;$;<=444ey",
"zxbMBtte4>:<880f0989969y99899yty",
"rq66rttrlszgnvjmmnmvjjvapppe@<ya",
"wq6qe6rwq56eayicmvvkjapppyyy6taa",
"jzjjzsdzazzvnnmNmmmmnmh=$$$$;-%&",
"nnvmmnxmnnVVmVnmmmmmvmk+@OOXXoX ",
"cnhjjjzzvvmmVVmmNNmNmVk--$-$#ooo",
"jvjjppay00yippiyittitft777745444",
"ppapsyee7776747472::<<<4<<5<224:",
"vavxsuuy99t74:<-$$=$-=---;;--;--",
"eyeueppjaknvmVmMz04yzt<etr99e5<>"
};
