/* XPM */
static char *result[] = {
/* columns rows colors chars-per-pixel */
"32 32 233 2 ",
"   c #3B1603",
".  c #3E1703",
"X  c #3E1704",
"o  c #3F1803",
"O  c #3F1804",
"+  c #401804",
"@  c #411904",
"#  c #421904",
"$  c #431904",
"%  c #431A04",
"&  c #441A04",
"*  c #451A04",
"=  c #461A04",
"-  c #461B04",
";  c #471B04",
":  c #481B04",
">  c #491C04",
",  c #4A1C04",
"<  c #4B1C04",
"1  c #4A1C05",
"2  c #4B1C05",
"3  c #4B1D05",
"4  c #4C1D05",
"5  c #4D1D05",
"6  c #4E1D04",
"7  c #4E1D05",
"8  c #4E1E05",
"9  c #4F1E05",
"0  c #511F04",
"q  c #501E05",
"w  c #501F05",
"e  c #511F05",
"r  c #521F05",
"t  c #531F05",
"y  c #532005",
"u  c #542005",
"i  c #552005",
"p  c #552105",
"a  c #562105",
"s  c #572105",
"d  c #582105",
"f  c #582205",
"g  c #592205",
"h  c #5A2205",
"j  c #5B2305",
"k  c #592206",
"l  c #5B2306",
"z  c #5C2305",
"x  c #5D2305",
"c  c #5C2306",
"v  c #5D2306",
"b  c #5D2406",
"n  c #5E2406",
"m  c #5F2406",
"M  c #602406",
"N  c #602506",
"B  c #612506",
"V  c #622506",
"C  c #632606",
"Z  c #642606",
"A  c #652606",
"S  c #652706",
"D  c #662706",
"F  c #672706",
"G  c #682706",
"H  c #682806",
"J  c #692806",
"K  c #6A2806",
"L  c #6B2906",
"P  c #6C2906",
"I  c #6C2907",
"U  c #6D2907",
"Y  c #6D2A07",
"T  c #6F2A06",
"R  c #6E2A07",
"E  c #6F2A07",
"W  c #6B2A09",
"Q  c #702A06",
"!  c #712B06",
"~  c #702A07",
"^  c #702B07",
"/  c #712B07",
"(  c #722B06",
")  c #722B07",
"_  c #722C07",
"`  c #732C07",
"'  c #742C07",
"]  c #752C07",
"[  c #752D07",
"{  c #762C07",
"}  c #762D07",
"|  c #772D07",
" . c #782D07",
".. c #782E07",
"X. c #792E07",
"o. c #7A2E07",
"O. c #7A2F07",
"+. c #7B2F07",
"@. c #7C2F07",
"#. c #7D2F07",
"$. c #702C09",
"%. c #722D0A",
"&. c #7B2F08",
"*. c #7C2F08",
"=. c #7D2F08",
"-. c #7D3008",
";. c #7E3008",
":. c #7F3008",
">. c #7F320A",
",. c #803108",
"<. c #813108",
"1. c #823108",
"2. c #823208",
"3. c #833208",
"4. c #843208",
"5. c #853208",
"6. c #853308",
"7. c #863308",
"8. c #873308",
"9. c #84340B",
"0. c #883308",
"q. c #883408",
"w. c #893408",
"e. c #8A3408",
"r. c #8A3508",
"t. c #8B3508",
"y. c #8C3508",
"u. c #8D3508",
"i. c #8D3608",
"p. c #8E3608",
"a. c #8E3609",
"s. c #8F3609",
"d. c #8F3709",
"f. c #8F380B",
"g. c #903709",
"h. c #913709",
"j. c #923709",
"k. c #923809",
"l. c #933809",
"z. c #943809",
"x. c #953809",
"c. c #953909",
"v. c #963909",
"b. c #973909",
"n. c #953B0C",
"m. c #983A09",
"M. c #993A09",
"N. c #9A3A09",
"B. c #9A3B09",
"V. c #9B3B09",
"C. c #9C3B09",
"Z. c #9D3C09",
"A. c #9E3C09",
"S. c #9E3C0A",
"D. c #9F3C0A",
"F. c #9F3D0A",
"G. c #A03D0A",
"H. c #A13D0A",
"J. c #A23D0A",
"K. c #A23E0A",
"L. c #A33E0A",
"P. c #A43E0A",
"I. c #A53F0A",
"U. c #A63F0A",
"Y. c #A73F0A",
"T. c #A7400A",
"R. c #A6410D",
"E. c #A8400A",
"W. c #A9400A",
"Q. c #AA410A",
"!. c #AB410A",
"~. c #AC410A",
"^. c #AC420A",
"/. c #AD420A",
"(. c #AE420A",
"). c #AF420A",
"_. c #AF430B",
"`. c #AC430D",
"'. c #B0430B",
"]. c #B1430B",
"[. c #B2440B",
"{. c #B3440B",
"}. c #B4440B",
"|. c #B4450B",
" X c #B5450B",
".X c #B6450B",
"XX c #B7450B",
"oX c #B7460B",
"OX c #B8460B",
"+X c #B9460B",
"@X c #B9470B",
"#X c #BA470B",
"$X c #BB470B",
"%X c #BC470B",
"&X c #BC480B",
"*X c #BD480B",
"=X c #BE480B",
"-X c #BF490B",
";X c #BA480E",
":X c #BE480C",
">X c #C0490B",
",X c #C0490C",
"<X c #C14A0C",
"1X c #C24A0C",
"2X c #C14B0E",
"3X c #C64B0C",
"4X c #C44C0E",
"5X c #CE4E0C",
"6X c #CF4F0C",
"7X c #D04F0C",
"8X c #D14F0D",
"9X c #D3500D",
"0X c #D1510F",
"qX c #D4500D",
"wX c #D5510D",
"eX c #D6510D",
"rX c #D4520F",
"tX c #D5530F",
"yX c #D6530F",
"uX c #D8520D",
"iX c #D9520D",
"pX c #DA530D",
"aX c #DB530D",
"sX c #DC530D",
"dX c #DC540D",
"fX c #D95410",
"gX c #DB5510",
"hX c #DD5610",
"jX c #DE5610",
"kX c #DF5610",
"lX c #E15710",
"zX c #E25810",
"xX c #E35810",
/* pixels */
"tXgX4X$.hXyXrXW 0XyXjX$.2XfXxX>.`.jXxXf.n.zXkXR.9.xXgX;X%.lXrXyX",
"! ( J . { T !   Q T } . G !  .* x ' | 6 0 | ] h :  .( Z o | T ( ",
"m.k *X#XQ.y |.@X.Xe U.$X:Xl c.*X1XJ <.,X<X&.R 1X:Xg.m ,X%XH.u @X",
"U ; 1.o...# ;.X.:.@ } o.3.: I #.3.e M ,.<.c u 3.;.J < 3.+.` % <.",
"'.+XA.y  X X/.9 Q..XoXy V.OX&XN w.$X=XR ' *X$X3.A *X+Xz.i #X}.(.",
",.1.| * 6.:.,.# :.:.7.* ] <.q.8 J 4.q.d c 8.6.S e q.1./ ; 0.;.<.",
"k.s .X{.P.w (.[.'.8 G.{.oXg g..X#XS #.+X#X| L #XXXt.c +X}.V.r [.",
"^ ; q.1.-.$ 3.<.5.@ +.2.w.> ^ 5.r.r V q.q.n p e.6.I 3 e.3.| & 8.",
"W.].m.e (./.U.4 L.(._.e c._.|.v 3.[. XK ^  X{.;.B  X].a.r [.~.Y.",
"8.r.+.* t.8.7.# 4.8.y.= X.w.s.9 P y.s.g b s.u.H r s.e.] ; a.7.7.",
"t.t ~.W.V.4 P.E.U.2 m.W./.u w.~.'.N } )._./ S './.3.d (.Q.l.8 W.",
"..2 l.i.7.* i.i.s.& 3.a.z.4 | g.v.a H l.z.Z h c.h.` 9 x.s.:.; h.",
"G.E.h.7 I.P.A., V.I.Y.8 a.U.!.g -.W.~.D L ~.Q...v ~.T.q.9 W.L.D.",
"h.v.4.> v.l.d.* i.l.b.> 1.c.V.y ` m.V.n C B.m.E s V.v.#.2 M.j.g.",
"7.e I.H.c.2 S.G.G.> k.J.U.r 4.P.W.n ` T.E.Y V W.I.:.a T.K.a.4 K.",
"-.4 B.v.y.; z.c.c.* w.v.V.8 @.m.Z.f P V.C.F v Z.M.| e C.b.5.: m.",
"m.A.w.< Z.V.v.; l.V.A.< 8.Z.K.i | G.L.B D K.H._ g K.A.<.4 G.N.b.",
"m.S.w.< Z.V.v.; l.V.A.< 8.Z.K.i  .G.L.B D K.H._ g K.A.<.4 G.N.b.",
"-.4 B.v.y.; z.c.c.* w.v.V.8 @.m.Z.f P C.C.F v Z.M.| e C.b.5.: m.",
"6.w I.H.c.1 A.G.G.> k.J.U.r 4.P.W.n ) Y.E.U V W.I.:.i T.K.p.4 K.",
"s.z.2.: z.h.a.* y.h.c.: ,.l.M.r ) v.M.v V M.b.Y a M.z.+., b.g.s.",
"J.W.j.8 Y.U.F., Z.U.E.8 s.E./.h :.!.(.F I /.~.X.n /.W.w.q !.I.G.",
"X.3 z.a.8.- a.i.s.* 4.a.z.5 ..h.v.s J z.x.Z j v.j.` 9 c.s.,.; j.",
"r.r ~.W.V.4 P.E.U.2 m.W./.u w.~.'.N } )._./ A '.^.3.d (.Q.l.8 W.",
"8.r.+.= t.8.7.# 4.8.y.= X.w.s.9 P y.s.g b s.u.H r s.e.] ; a.7.8.",
"W.].m.e (./.U.4 L.(._.e z._.}.v 3.[. XK ~  X{.;.B  X].a.r [.~.U.",
"^ ; q.1.#.$ 3.<.5.@ +.1.w.> ~ 5.e.r V q.w.n i e.7.P 3 e.3.| & 8.",
"k.s .X{.P.w (.[.'.8 G.{.oXf g..X#XS =.+X#X| L #XXXt.c +X|.V.r [.",
":.,.} & 3.-.:.@ -.-.4.& ` :.7.5 G 2.7.a h 6.3.Z w 7.,.E - 7.*.,.",
"[.$XG.u oXoX).q ~.OX+Xu C.#X=XB e.*X>X~ [ -X=X4.D -X$Xv.a %X.X'.",
"H % ;.} ' O X.} O.X ) | ;.& G X.:.5 z @.-.d q ;.o.Z ; :. .R + @.",
"[.^ iX6X3XH 8X5X9XD 1X7XpX) ].qXdX<.V.uXpXz.8.sXwX!.} aX8X*XK eX"
};
