/* XPM */
static char *result[] = {
/* columns rows colors chars-per-pixel */
"32 32 142 2 ",
"   c #464646",
".  c white",
"X  c #464545",
"o  c #FDFDFD",
"O  c #444343",
"+  c #474140",
"@  c #444242",
"#  c gray28",
"$  c #4B4544",
"%  c #4C4342",
"&  c #4B4B4B",
"*  c #494949",
"=  c #454444",
"-  c #474746",
";  c #766664",
":  c #7A6864",
">  c #665F5F",
",  c gray79",
"<  c #D5D5D5",
"1  c gray26",
"2  c #4C4645",
"3  c #7F5C54",
"4  c #534744",
"5  c gray30",
"6  c #5B5B5B",
"7  c gray33",
"8  c #4E4E4E",
"9  c #5F4F4B",
"0  c #484747",
"q  c #474646",
"w  c #484848",
"e  c gray53",
"r  c #A1A2A3",
"t  c #9B9D9D",
"y  c #9FA0A0",
"u  c #A0A0A0",
"i  c gray60",
"p  c #868686",
"a  c #6F6F6F",
"s  c gray40",
"d  c gray39",
"f  c #6C6A6A",
"g  c #504D4C",
"h  c #434445",
"j  c #444646",
"k  c gray34",
"l  c gray36",
"z  c #4C4C4C",
"x  c #5F514D",
"c  c #64524E",
"v  c #696868",
"b  c #A7A7A7",
"n  c #979797",
"m  c #989797",
"M  c #9A9A9A",
"N  c gray61",
"B  c gray62",
"V  c gray64",
"C  c #A4A4A4",
"Z  c #A2A2A2",
"A  c #9C9D9D",
"S  c #8E8F8F",
"D  c #976D67",
"F  c #958481",
"G  c #595C5D",
"H  c #3F3F3F",
"J  c #FEFEFE",
"K  c #CFC3C1",
"L  c #B8A5A1",
"P  c #C7B5B2",
"I  c #C6B9B6",
"U  c #C6B9B7",
"Y  c #C3B3B0",
"T  c #C6B0AB",
"R  c #A58F8A",
"E  c #757676",
"W  c gray57",
"Q  c #959595",
"!  c #8D8D8D",
"~  c gray58",
"^  c #989898",
"/  c #939393",
"(  c #999595",
")  c #9B9898",
"_  c #8E8E8E",
"`  c gray92",
"'  c #F6F5F5",
"]  c #E8E3E2",
"[  c #EAE6E6",
"{  c #EDEAE9",
"}  c #ECE8E7",
"|  c #EDE8E7",
" . c #DED7D6",
".. c #747474",
"X. c #929292",
"o. c gray56",
"O. c gray59",
"+. c #8F8E8E",
"@. c #988A89",
"#. c #918C8B",
"$. c #797A7A",
"%. c gray45",
"&. c #939392",
"*. c #F1F1F1",
"=. c #484A4A",
"-. c gray52",
";. c #888888",
":. c gray55",
">. c #909090",
",. c #838282",
"<. c #696767",
"1. c #815F5B",
"2. c #655958",
"3. c #393C3D",
"4. c #444444",
"5. c gray49",
"6. c #7E5E57",
"7. c #655754",
"8. c #676969",
"9. c gray47",
"0. c #797979",
"q. c gray46",
"w. c #646464",
"e. c #454546",
"r. c #434444",
"t. c #3F4343",
"y. c #616262",
"u. c #717171",
"i. c #656565",
"p. c #5E504D",
"a. c #75554F",
"s. c #474342",
"d. c #DADADA",
"f. c #434343",
"g. c #65534F",
"h. c #6A514C",
"j. c #555555",
"k. c gray32",
"l. c #414141",
"z. c #4F4847",
"x. c gray27",
"c. c #464747",
/* pixels */
"                              . .                               ",
"                              . .                               ",
"                              . .                               ",
"                              . .                               ",
"                              . .                               ",
"                              . .                               ",
"                              . .                               ",
"                              . .                               ",
"                              . .                               ",
"                          X   . .                               ",
"                              o o                               ",
"                        O + @ . .   # # #   $ %     # & *       ",
"    =                 - ; : > , < 1       2 3 4   5 6 7 8       ",
"  9 2   0     q 0 # w e r t y u i p a s d f g h j   k l z   #   ",
"  x c #             v b n n m M N B V C Z A S D F G H d         ",
"J . K L P I U Y T R E W Q ! n W ~ ~ Q M ^ ~ / ( ) i _ / ` . J . ",
". . . ' ] [ { } |  ...X.~ _ o.O.o.W O.O.n n +.@.#.$.%.&.*.J J . ",
"                    =.-._ ;.:./ >.>.o.e ,.$.<.1.2.3.4.5.z   #   ",
"            X   q 6.7.8.9.0.q.q.a w.l k & e.r.t.    y.u.i.      ",
"                  p.a.s.w w # , d.f.1 g.h.          j.5 k.&     ",
"                    l.        . .       z.q   x.                ",
"                      c.      o J                               ",
"                              . .                               ",
"                              . .                               ",
"                              . .                               ",
"                              . .                               ",
"                              . .                               ",
"                              . .                               ",
"                              . .                               ",
"                              . .                               ",
"                              . .                               ",
"                              . .                               "
};
