/* XPM */
static char *result[] = {
/* columns rows colors chars-per-pixel */
"32 32 85 1 ",
"  c gray18",
". c #4D5051",
"X c #525050",
"o c #505252",
"O c #595352",
"+ c #5F5B5A",
"@ c #5D5D5D",
"# c #5E5D5D",
"$ c #5C5F5F",
"% c #5F5E5E",
"& c #6F514A",
"* c #7B564F",
"= c #655351",
"- c #665450",
"; c #665753",
": c #6D5753",
"> c #7D5751",
", c gray39",
"< c #646464",
"1 c #676666",
"2 c #6A6A6A",
"3 c #6A6D6D",
"4 c #7A6461",
"5 c #7B706F",
"6 c #737171",
"7 c #747474",
"8 c #767676",
"9 c #7C7C7C",
"0 c #7D7D7E",
"q c #836A65",
"w c #8F6963",
"e c #816D69",
"r c #9C6D63",
"t c #867D7B",
"y c #997570",
"u c #808080",
"i c #818181",
"p c #828384",
"a c #848585",
"s c #878585",
"d c #868686",
"f c gray53",
"g c #888483",
"h c #888989",
"j c gray54",
"k c #8B8B8B",
"l c #8D8D8D",
"z c #8E8C8C",
"x c #8E8E8E",
"c c #8F8E8E",
"v c gray56",
"b c #8F9191",
"n c #8E9697",
"m c #909090",
"M c gray57",
"N c #919292",
"B c #919393",
"V c #929292",
"C c #939392",
"Z c #929393",
"A c #939393",
"S c gray58",
"D c #959595",
"F c #969595",
"G c #969695",
"H c gray59",
"J c #979797",
"K c #999696",
"L c #989898",
"P c gray60",
"I c #999A9A",
"U c #989A9B",
"Y c #9A9A9A",
"T c #9B9C9D",
"R c gray61",
"E c #9D9D9D",
"W c #9E9D9D",
"Q c gray62",
"! c #9F9F9F",
"~ c #A98984",
"^ c #A39998",
"/ c #A2A2A2",
"( c gray64",
") c #A9A9A9",
"_ c None",
/* pixels */
"________________________________",
"________________________________",
"________________________________",
"________________________________",
"________________________________",
"________________________________",
"________________________________",
"________________________________",
"________________________________",
"________________________________",
"________________________________",
"________________________________",
"_______________4:_______________",
"____________d/QWJMz0e;__________",
"____________!RYYYE/(UTRNgwt$_9__",
"___________6HHmDHVLDJYPIK~^b,f__",
">*________&1kGvmSAvVSDHAZnBFLv__",
"___________.cMxjDmMAJDCMsy5o 8__",
"___________-3pjilahu72<@X=___)__",
"___________rq+<#@%O_____________",
"________________________________",
"________________________________",
"________________________________",
"________________________________",
"________________________________",
"________________________________",
"________________________________",
"________________________________",
"________________________________",
"________________________________",
"________________________________",
"________________________________"
};
