/* XPM */
static char *result[] = {
/* columns rows colors chars-per-pixel */
"32 32 145 2 ",
"   c #464646",
".  c white",
"X  c gray28",
"o  c #FEFEFE",
"O  c gray27",
"+  c #4F4644",
"@  c gray36",
"#  c #4A4949",
"$  c #484848",
"%  c #4B4B4B",
"&  c #4E4E4E",
"*  c gray29",
"=  c #474646",
"-  c #7B5F59",
";  c #9A736C",
":  c #696B6D",
">  c #727171",
",  c #737171",
"<  c #A7A7A7",
"1  c #AEAEAE",
"2  c #717171",
"3  c #7C7C7C",
"4  c gray65",
"5  c #848484",
"6  c gray31",
"7  c gray37",
"8  c #555555",
"9  c #505050",
"0  c #464544",
"q  c #745A54",
"w  c #7C6E6B",
"e  c #A6A8A8",
"r  c #A3A2A2",
"t  c gray64",
"y  c gray63",
"u  c #979797",
"i  c #A0A09F",
"p  c gray56",
"a  c gray42",
"s  c #565656",
"d  c #4C4C4C",
"f  c gray30",
"g  c #6B534E",
"h  c #65534E",
"j  c #595B5B",
"k  c #A0A0A0",
"l  c gray59",
"z  c #9A9A9A",
"x  c gray60",
"c  c #989898",
"v  c gray61",
"b  c #A4A3A3",
"n  c #A0A3A4",
"m  c #9B8B89",
"M  c #A0746E",
"N  c #969494",
"B  c #4F5050",
"V  c gray25",
"C  c gray40",
"Z  c #F2EEEE",
"A  c #B8A29D",
"S  c #B6A39F",
"D  c #B8A7A4",
"F  c #AC9C99",
"G  c #A59996",
"H  c #AEA4A2",
"J  c #AB9E9C",
"K  c #A1918D",
"L  c #B09691",
"P  c #887571",
"I  c #777979",
"U  c #908F8F",
"Y  c #8D8D8D",
"T  c #929292",
"R  c #959595",
"E  c #959596",
"W  c #959493",
"Q  c #999291",
"!  c #9B9A9A",
"~  c gray57",
"^  c #939393",
"/  c gray90",
"(  c #F5F4F3",
")  c #F4F1F0",
"_  c #EAE6E6",
"`  c #E2DEDD",
"'  c #E7E4E3",
"]  c #E4E1E0",
"[  c #E2DDDC",
"{  c #E2DBDA",
"}  c #BDB8B6",
"|  c #6C6D6D",
" . c gray58",
".. c #8E8E8E",
"X. c #969595",
"o. c #969797",
"O. c #969292",
"+. c #9B9593",
"@. c #7E7F7F",
"#. c gray47",
"$. c #888888",
"%. c gray92",
"&. c #4F4F4E",
"*. c #8B8B8B",
"=. c gray54",
"-. c #909090",
";. c gray53",
":. c #7A7E7E",
">. c #857471",
",. c #8D6964",
"<. c #5C5E5E",
"1. c gray21",
"2. c #797A79",
"3. c #4B4B4A",
"4. c #464545",
"5. c #444444",
"6. c #646464",
"7. c gray51",
"8. c #818181",
"9. c #767777",
"0. c gray48",
"q. c gray45",
"w. c #656668",
"e. c #696867",
"r. c #5D5D5D",
"t. c #434344",
"y. c #3F4041",
"u. c gray26",
"i. c gray39",
"p. c #676767",
"a. c #494949",
"s. c #8C746F",
"d. c #6F524C",
"f. c #4D4645",
"g. c #454444",
"h. c #84625A",
"j. c #584D4A",
"k. c gray32",
"l. c #5B5B5B",
"z. c #EEEAE9",
"x. c #D5CECC",
"c. c #484545",
"v. c #64534F",
"b. c #484747",
"n. c #FDFDFD",
/* pixels */
"                              . .                               ",
"                              . .                               ",
"                              . .                               ",
"                              . .                               ",
"                              . .                               ",
"                              . .                               ",
"                              . .                               ",
"                              . .                               ",
"                              . .                               ",
"                              . .     X X                       ",
"                        X X X o o X       X                     ",
"                    O +       . .     @ #   $ X       $ % & *   ",
"  X             = O - ; : > , < 1 2 3 4 5 *           6 7 8 9   ",
"0   =         = X = q w e r t t t t y u i p a s d d $   8 7 f   ",
"g h                   j k u l z z u x c c v b n m M N B V C     ",
"Z A S D F G H J K L P I U l Y u T T R T l x c E W Q ! R ~ ^ / . ",
". . ( ) _ ` ' ] [ { } | ~  .p ..X.~ p ^ l R x o.O.+.U @.#.$.%.o ",
"= =                   &.*...=.Y R p T U -.$.;.:.>.,.<.1.V 2.3.  ",
"                4.    5.6.7.8.9.0.#.q.w.e.r.&   t.y.u.  i.#.p.  ",
"                        X f a.s.d.f.g.h.j.5.            7 k.l.f ",
"                              z.x.c.= v.b.  X           a.    a.",
"                          X X . .                               ",
"                              o n.    =                         ",
"                              . .                               ",
"                              . .                               ",
"                              . .                               ",
"                              . .                               ",
"                              . .                               ",
"                              . .                               ",
"                              . .                               ",
"                              . .                               ",
"                              . .                               "
};
