/* XPM */
static char *result[] = {
/* columns rows colors chars-per-pixel */
"32 32 87 1 ",
"  c gray18",
". c #4E5151",
"X c #535151",
"o c #505252",
"O c #595352",
"+ c #5F5B5A",
"@ c #5C5D5D",
"# c #5D5D5D",
"$ c #5E5D5D",
"% c #5F5E5E",
"& c #6E4E47",
"* c #79564E",
"= c #655351",
"- c #665450",
"; c #665653",
": c #6D5753",
"> c #7B5850",
", c #5E6161",
"< c #626262",
"1 c #636262",
"2 c #656565",
"3 c #676666",
"4 c #6A6A6A",
"5 c #6A6D6D",
"6 c #7A6461",
"7 c #7B706F",
"8 c #717171",
"9 c #747474",
"0 c #767674",
"q c gray48",
"w c #7A7D7D",
"e c #836A65",
"r c #8F6963",
"t c #816D69",
"y c #9A6D63",
"u c #857B7A",
"i c #997570",
"p c #818181",
"a c #828384",
"s c #848585",
"d c #878585",
"f c #868686",
"g c gray53",
"h c #888483",
"j c #888989",
"k c gray54",
"l c #8B8B8B",
"z c gray55",
"x c #8E8D8D",
"c c #8E8E8E",
"v c gray56",
"b c #8E9697",
"n c #909090",
"m c gray57",
"M c #929191",
"N c #919192",
"B c #909292",
"V c #919393",
"C c #929292",
"Z c #929393",
"A c #939393",
"S c gray58",
"D c #959595",
"F c #969595",
"G c #969695",
"H c gray59",
"J c #979797",
"K c #999696",
"L c #989898",
"P c gray60",
"I c #999A9A",
"U c #989A9B",
"Y c #9A9A9A",
"T c #9B9C9D",
"R c gray61",
"E c #9D9C9C",
"W c #9D9D9D",
"Q c #9E9D9D",
"! c gray62",
"~ c #9F9F9F",
"^ c #A98984",
"/ c #A39998",
"( c gray63",
") c #A2A2A2",
"_ c gray64",
"` c gray66",
"' c None",
/* pixels */
"''''''''''''''''''''''''''''''''",
"''''''''''''''''''''''''''''''''",
"''''''''''''''qgv0`'''''''''''''",
"'''''''''''''''1L ''''''''''''''",
"'''''''''''''',BFo''''''''''''''",
"''''''''''''''u/V7''''''''''''''",
"''''''''''''''r^bi='''''''''''''",
"''''''''''''''hKZdX'''''''''''''",
"''''''''''''''NIAm#'''''''''''''",
"''''''''''''''EPHA2'''''''''''''",
"''''''''''''';TYDD4'''''''''''''",
"'''''''''''''tUJSJ9'''''''''''''",
"'''''''''''''w_SCAp'''''''''''''",
"'''''''''''''z)LvmjO''''''''''''",
"'''''''''''''mWCAns%''''''''''''",
"'''''''''''':JYHSDx@''''''''''''",
"''''''''''''6QYDnkp$''''''''''''",
"'''''''''''''!Ynvcl<''''''''''''",
"'''''''''''''(RHGMa+''''''''''''",
"'''''''''''''f~Hlc5e''''''''''''",
"'''''''''''''''83.-y''''''''''''",
"''''''''''''''''&'''''''''''''''",
"''''''''''''''''''''''''''''''''",
"''''''''''''''''''''''''''''''''",
"''''''''''''''''''''''''''''''''",
"''''''''''''''''''''''''''''''''",
"''''''''''''''''''''''''''''''''",
"''''''''''''''''''''''''''''''''",
"''''''''''''''''''''''''''''''''",
"''''''''''''''''''''''''''''''''",
"''''''''''''''''*'''''''''''''''",
"''''''''''''''''>'''''''''''''''"
};
