/* XPM */
static char *result[] = {
/* columns rows colors chars-per-pixel */
"32 32 85 1 ",
"  c #262525",
". c #574C49",
"X c #514E4E",
"o c #5D4F4E",
"O c #4F5456",
"+ c gray33",
"@ c #545555",
"# c #555555",
"$ c #565656",
"% c gray34",
"& c #5B5A5A",
"* c #5B5C5C",
"= c #5A5D5D",
"- c #7A544B",
"; c #6E5753",
": c #74615D",
"> c #646666",
", c #6F6361",
"< c #646969",
"1 c #6B6A6A",
"2 c #717171",
"3 c #727272",
"4 c #797977",
"5 c #787978",
"6 c #797B7B",
"7 c #7B7A7A",
"8 c #7D7F7F",
"9 c gray50",
"0 c #886259",
"q c #8C665F",
"w c #8B6A66",
"e c #8B6C68",
"r c #8D706A",
"t c #997269",
"y c #837370",
"u c #8A7571",
"i c #8A7875",
"p c #AB796E",
"a c #7E8080",
"s c #808282",
"d c gray51",
"f c #838383",
"g c #838485",
"h c #848484",
"j c gray52",
"k c #868686",
"l c gray53",
"z c #868989",
"x c #898989",
"c c gray54",
"v c #8B8A8A",
"b c #8E8E8E",
"n c gray56",
"m c #9F8A86",
"M c #908F8F",
"N c #9C8E8C",
"B c #8D9395",
"V c #909090",
"C c gray57",
"Z c #929291",
"A c #929292",
"S c #939292",
"D c #939393",
"F c #949393",
"G c #909394",
"H c #909494",
"J c gray58",
"K c #959595",
"L c gray59",
"P c #969797",
"I c #979999",
"U c #999898",
"Y c gray60",
"T c #989A9B",
"R c #9A9A9A",
"E c gray61",
"W c #9D9D9D",
"Q c #9E9F9F",
"! c #A0A1A1",
"~ c #A2A2A2",
"^ c gray64",
"/ c #A4A4A4",
"( c #A5A5A5",
") c gray67",
"_ c None",
/* pixels */
"________________________________",
"________________________________",
"_______________j54)_____________",
"_______________9n+______________",
"_______________7V ______________",
"______________s!V>______________",
"______________wmGe______________",
"______________uNHi______________",
"_____________qBISz$_____________",
"_____________,EULSO_0___________",
"_____________<~YJn=:____________",
"______________~YKL3_____________",
"_____________8/JAJ2_____________",
"_____________l^LVDd_____________",
"_____________nWKCCx+____________",
"____________;PRCKKx%____________",
"____________rTUYCVk#____________",
"____________yQYnbcf&____________",
"_____________~YKJVv*____________",
"_____________R(FZM6X____________",
"______________hga1@t-___________",
"_______________o.__p____________",
"________________________________",
"________________________________",
"________________________________",
"________________________________",
"________________________________",
"________________________________",
"________________________________",
"________________________________",
"________________________________",
"________________________________"
};
