/* XPM */
static char *result[] = {
/* columns rows colors chars-per-pixel */
"32 32 88 1 ",
"  c #262525",
". c #46494B",
"X c #4C4F4F",
"o c #514A4A",
"O c #534D4D",
"+ c #545656",
"@ c #555757",
"# c gray34",
"$ c #585050",
"% c #5C5452",
"& c gray35",
"* c #5C5858",
"= c #615C59",
"- c #666768",
"; c #6A6A6A",
": c #6F6F6F",
"> c #736461",
", c #717171",
"< c #727171",
"1 c #747474",
"2 c gray47",
"3 c #7B7B79",
"4 c gray48",
"5 c #7C7C7C",
"6 c #7C7D7E",
"7 c gray50",
"8 c #80554C",
"9 c #93675D",
"0 c #90675E",
"q c #95665C",
"w c #906A5F",
"e c #92706C",
"r c #92726E",
"t c #8C7672",
"y c #867C79",
"u c #957875",
"i c #B27A6D",
"p c #808080",
"a c #808181",
"s c #838383",
"d c #818484",
"f c #838484",
"g c #848484",
"h c #848686",
"j c #868686",
"k c #868A8A",
"l c #8A8989",
"z c #898A8A",
"x c gray54",
"c c #8A8D8D",
"v c gray55",
"b c #8E8E8E",
"n c gray56",
"m c #9B8B88",
"M c #909090",
"N c #919090",
"B c gray57",
"V c #909393",
"C c #929292",
"Z c #939393",
"A c #949493",
"S c gray58",
"D c #959595",
"F c #959696",
"G c gray59",
"H c #979797",
"J c #939899",
"K c #97999A",
"L c #989898",
"P c #999898",
"I c gray60",
"U c #9A9A9A",
"Y c #9B9B9B",
"T c #9C9B9B",
"R c #9B9E9E",
"E c gray61",
"W c #9F9F9F",
"Q c #A58D89",
"! c #A19290",
"~ c #A0A0A0",
"^ c #A0A1A1",
"/ c gray63",
"( c #A2A2A1",
") c #A2A2A2",
"_ c #A2A4A5",
"` c #A4A4A4",
"' c gray67",
"] c None",
/* pixels */
"]]]]]]]]]]]]]]]]]]]]]]]]]]]]]]]]",
"]]]]]]]]]]]]]]]]]]]]]]]]]]]]]]]]",
"]]]]]]]]]]]]]]]]]]]]]]]]]]]]]]]]",
"]]]]]]]]]]]]]]]s53']]]]]]]]]]]]]",
"]]]]]]]]]]]]]]]7C&]]]]]]]]]]]]]]",
"]]]]]]]]]]]]]]]1C ]]]]]]]]]]]]]]",
"]]]]]]]]]]]]]]6^C-]]]]]]]]]]]]]]",
"]]]]]]]]]]]]]]eQJr]]]]]]]]]]]]]]",
"]]]]]]]]]]]]]]t!Vuo]]]]]]]]]]]]]",
"]]]]]]]]]]]]]]cKCk.i0]]]]]]]]]]]",
"]]]]]]]]]]]]]]TIGv*w]]]]]]]]]]]]",
"]]]]]]]]]]]]]p`IDb;X]]]]]]]]]]]]",
"]]]]]]]]]]]]]b~LDG,]]]]]]]]]]]]]",
"]]]]]]]]]]]]]FYSZS4]]]]]]]]]]]]]",
"]]]]]]]]]]]8mRPHBCg#]]]]]]]]]]]]",
"]]]]]]]]]]]]<EYDBBx+]]]]]]]]]]]]",
"]]]]]]]]]]]]]WYBSSh%]]]]]]]]]]]]",
"]]]]]]]]]]]]])IIBNd>]]]]]]]]]]]]",
"]]]]]]]]]]]]]/Unbla=]]]]]]]]]]]]",
"]]]]]]]]]]]]]WISSMb@]]]]]]]]]]]]",
"]]]]]]]]]]]]]_(ACB2]]]]]]]]]]]]]",
"]]]]]]]]]]]]]yjzf:]]]]]]]]]]]]]]",
"]]]]]]]]]]]]9q]$O]]]]]]]]]]]]]]]",
"]]]]]]]]]]]]]]]]]]]]]]]]]]]]]]]]",
"]]]]]]]]]]]]]]]]]]]]]]]]]]]]]]]]",
"]]]]]]]]]]]]]]]]]]]]]]]]]]]]]]]]",
"]]]]]]]]]]]]]]]]]]]]]]]]]]]]]]]]",
"]]]]]]]]]]]]]]]]]]]]]]]]]]]]]]]]",
"]]]]]]]]]]]]]]]]]]]]]]]]]]]]]]]]",
"]]]]]]]]]]]]]]]]]]]]]]]]]]]]]]]]",
"]]]]]]]]]]]]]]]]]]]]]]]]]]]]]]]]",
"]]]]]]]]]]]]]]]]]]]]]]]]]]]]]]]]"
};
