/* XPM */
static char *result[] = {
/* columns rows colors chars-per-pixel */
"32 32 142 2 ",
"   c #464646",
".  c white",
"X  c gray28",
"o  c #FEFEFE",
"O  c #4B4B4B",
"+  c #494949",
"@  c #4E4E4E",
"#  c #4C4C4C",
"$  c gray27",
"%  c #ECECEC",
"&  c #F4F4F4",
"*  c #656565",
"=  c gray32",
"-  c gray33",
";  c gray36",
":  c gray39",
">  c #939393",
",  c #7D7D7B",
"<  c #717171",
"1  c gray31",
"2  c #5B5B5B",
"3  c #565656",
"4  c #414040",
"5  c #8E8E8E",
"6  c gray45",
"7  c #5F5F5F",
"8  c #585C5D",
"9  c #99999A",
"0  c #7A7B7B",
"q  c #3A3C3C",
"w  c #464747",
"e  c #948381",
"r  c #9B9898",
"t  c #918C8B",
"y  c #655857",
"u  c #4C4442",
"i  c #514642",
"p  c #424444",
"a  c #976D68",
"s  c #999595",
"d  c #988A89",
"f  c #82605B",
"g  c #404343",
"h  c #474646",
"j  c #4C4645",
"k  c #805C55",
"l  c #514D4C",
"z  c #8E8F8F",
"x  c #8F8E8E",
"c  c #696767",
"v  c #434444",
"b  c #4B4544",
"n  c #6C6B6A",
"m  c #9C9C9D",
"M  c gray58",
"N  c #979797",
"B  c #797A7A",
"V  c #A2A2A2",
"C  c #989898",
"Z  c #838282",
"A  c #494A4A",
"S  c #6B514B",
"D  c #4F4847",
"F  c #484848",
"G  c gray40",
"H  c #A4A4A4",
"J  c gray60",
"K  c gray59",
"L  c gray53",
"P  c gray34",
"I  c #64524F",
"U  c gray44",
"Y  c gray64",
"T  c #959595",
"R  c gray56",
"E  c #434344",
"W  c #444444",
"Q  c #868686",
"!  c gray62",
"~  c gray57",
"^  c #909090",
"/  c #646464",
"(  c #FDFDFD",
")  c gray84",
"_  c gray61",
"`  c #6F6F6F",
"'  c #DADADA",
"]  c #CCCDCE",
"[  c gray63",
"{  c #9A9A9A",
"}  c gray46",
"|  c gray79",
" . c #464443",
".. c #665F5F",
"X. c #9FA0A0",
"o. c gray55",
"O. c #464545",
"+. c #474241",
"@. c #7A6864",
"#. c #9B9D9D",
"$. c #8D8D8D",
"%. c #888888",
"&. c #797979",
"*. c #474443",
"=. c #766663",
"-. c #A1A2A3",
";. c #797878",
":. c #888787",
">. c #A7A7A7",
",. c #929292",
"<. c #848484",
"1. c #676969",
"2. c #474342",
"3. c #686868",
"4. c #757676",
"5. c #747474",
"6. c #4C4D4D",
"7. c #655754",
"8. c #75554F",
"9. c #434242",
"0. c #A48E8A",
"q. c #DCD5D4",
"w. c #7E5D57",
"e. c #5D4F4C",
"r. c #484747",
"t. c #C9B3AE",
"y. c #F0EAE9",
"u. c #C3B3B0",
"i. c #ECE8E7",
"p. c #C6B9B6",
"a. c #EEEBEA",
"s. c #C7BAB7",
"d. c #EAE6E6",
"f. c #C7B7B4",
"g. c #E8E3E2",
"h. c #B8A6A1",
"j. c #F6F5F5",
"k. c #4F4846",
"l. c #64524E",
"z. c #CFC3C1",
"x. c #5F4F4B",
"c. c #5E504D",
/* pixels */
"                              . .                               ",
"                          X   o o X                             ",
"                              . .     O                         ",
"                      + @ # $ % & # * = X                       ",
"                      O - ; : > > , < 1 X                       ",
"                      + 2 3 4 5 6 X 7 3                         ",
"                        #   8 9 0 q   $                         ",
"                          w e r t y   X                         ",
"                      u i p a s d f g   $                       ",
"                    h j k l z > x c v                           ",
"                        b n m M N B $   h                       ",
"                      X   : V C N Z A S D                       ",
"                      F X G H J K L P I h                       ",
"                      X   U Y T K R ; E                         ",
"                        W Q ! M ~ ^ / W                         ",
". . . . . . . . . . ( o ) J _ M R ^ ` ' . o . . . . . . . . . . ",
". . . . . . . . . . ( . ] [ { ~ K > } | . ( . . . . . . . . . . ",
"                    X  ...X.N N R o.} X                         ",
"                  O.  +.@.#.N $.5 %.&.F                         ",
"                    X *.=.-.N T M 5 ;.X                         ",
"                        X :.>.~ ,.<.1.2.O.                      ",
"                          + 3.4.5.6.7.8.9.                      ",
"                              0.q.  w.e.                        ",
"                          r.X t.y.X W                           ",
"                          h   u.i.                              ",
"                              p.a.  O.                          ",
"                              s.d.                              ",
"                          r.h f.g.                              ",
"                              h.j.                              ",
"                        O.k.l.z..                               ",
"                      h   x.c.. o                               ",
"                              o .                               "
};
