/* XPM */
static char *result[] = {
/* columns rows colors chars-per-pixel */
"32 32 87 1 ",
"  c #2D2D2D",
". c #3C3C3C",
"X c #3F3F3F",
"o c #513A34",
"O c #583E3A",
"+ c #5F443D",
"@ c #4B4B4B",
"# c #505050",
"$ c #515151",
"% c #5E5F5F",
"& c #634540",
"* c #664F49",
"= c #6F524C",
"- c #75534C",
"; c #7E5A50",
": c #7A5E58",
"> c #5F6060",
", c gray39",
"< c #696867",
"1 c #67696B",
"2 c #6B6C6C",
"3 c #727373",
"4 c #767777",
"5 c #777777",
"6 c #777979",
"7 c gray47",
"8 c #797979",
"9 c #7B7B7B",
"0 c #7A7E7E",
"q c gray50",
"w c #835951",
"e c #855D56",
"r c #8D665D",
"t c #8D6964",
"y c #9B746C",
"u c #857371",
"i c #8F7D79",
"p c #A67469",
"a c #A0746E",
"s c #788080",
"d c #818181",
"f c gray51",
"g c #848282",
"h c #848484",
"j c gray53",
"k c #888787",
"l c #888888",
"z c #898989",
"x c gray54",
"c c #8B8B8B",
"v c gray55",
"b c #8D8D8D",
"n c #8E8E8E",
"m c gray56",
"M c #908F8F",
"N c #9B8B89",
"B c #909090",
"V c gray57",
"C c #929292",
"Z c #939393",
"A c #959191",
"S c #949392",
"D c gray58",
"F c #959595",
"G c #969494",
"H c #969595",
"J c #959596",
"K c gray59",
"L c #979797",
"P c #989190",
"I c #9B9593",
"U c #989898",
"Y c gray60",
"T c #9A9999",
"R c #9A9A9A",
"E c #9B9B9B",
"W c #9F9F9F",
"Q c #A0A09F",
"! c gray63",
"~ c #A3A2A2",
"^ c gray64",
"/ c #A4A3A3",
"( c #A0A3A4",
") c #A4A4A4",
"_ c gray65",
"` c #A6A8A9",
"' c None",
/* pixels */
"''''''''''''''''''''''''''''''''",
"''''''''''''''''''''''''''''''''",
"''''''''''''''7v5z''''''''''''''",
"''''''''''''''.V7X''''''''''''''",
"''''''''''''''#Fq ''''''''''''''",
"''''''''''''''GTM%''''''''''''''",
"''''''''''''''aPIt''''''''''''''",
"''''''''''''''NSAu''''''''''''''",
"''''''''''''''(ZJ0''''''''''''''",
"'''''''''''''9/KLk#'''''''''''''",
"'''''''''''''VELDl>'''''''''''''",
"''''''''''''bQYKKB<'''''''''''''",
"''''''''''''_YUCZM1r''''''''''''",
"''''''''''''x!RFmC3'''''''''''''",
"''''''''''''l)UCVB7'''''''''''''",
"''''''''''''j^UCHF8=''''''''''''",
"''''''''''''h^ULnv4:''''''''''''",
"''''''''''''g^Lbmcd@''''''''''''",
"''''''''''''g~YKDBf#''''''''''''",
"''''''''''''s`WMVc,'''''''''''''",
"''''''''''''yi'62$''''''''''''''",
"''''''''''''p''*''''''''''''''''",
"'''''''''''''''w''''''''''''''''",
"'''''''''''''''+''''''''''''''''",
"'''''''''''''''O''''''''''''''''",
"''''''''''''''''''''''''''''''''",
"'''''''''''''''o''''''''''''''''",
"'''''''''''''''&''''''''''''''''",
"''''''''''''''''''''''''''''''''",
"'''''''''''''''-''''''''''''''''",
"'''''''''''''''e''''''''''''''''",
"'''''''''''''';'''''''''''''''''"
};
