/* XPM */
static char *result[] = {
/* columns rows colors chars-per-pixel */
"32 32 142 2 ",
"   c #464646",
".  c white",
"X  c gray30",
"o  c #494949",
"O  c gray29",
"+  c #515151",
"@  c gray90",
"#  c gray93",
"$  c #4B4B4B",
"%  c #686868",
"&  c #5B5B5B",
"*  c gray28",
"=  c gray31",
"-  c #555555",
";  c gray37",
":  c #656565",
">  c #939393",
",  c #888888",
"<  c #797979",
"1  c #535353",
"2  c #4C4C4C",
"3  c gray33",
"4  c gray25",
"5  c gray57",
"6  c gray47",
"7  c gray26",
"8  c #606060",
"9  c #4E4E4E",
"0  c gray27",
"q  c #959595",
"w  c gray50",
"e  c gray21",
"r  c #484848",
"t  c #969494",
"y  c #9B9A9A",
"u  c #908F8F",
"i  c #5C5D5D",
"p  c #434444",
"a  c #A0746E",
"s  c #999291",
"d  c #9B9593",
"f  c #8D6964",
"g  c #3E4040",
"h  c #4D4C4C",
"j  c #9B8B89",
"k  c #959493",
"l  c #969292",
"z  c #857371",
"x  c #A0A3A4",
"c  c #979798",
"v  c #7A7E7E",
"b  c #6A6A6A",
"n  c #A4A3A3",
"m  c #989898",
"M  c gray60",
"N  c #888787",
"B  c #484747",
"V  c #909090",
"C  c #9B9B9B",
"Z  c #979797",
"A  c #4C4B4B",
"S  c #848484",
"D  c #A0A09F",
"F  c gray59",
"G  c #696867",
"H  c #584D4B",
"J  c #484646",
"K  c gray36",
"L  c gray65",
"P  c #929292",
"I  c #656668",
"U  c #84625A",
"Y  c #63534F",
"T  c #474646",
"R  c #7C7C7C",
"E  c gray63",
"W  c gray56",
"Q  c #727373",
"!  c #414242",
"~  c #474645",
"^  c gray44",
"/  c #A4A4A4",
"(  c #4C4544",
")  c #474545",
"_  c #FEFEFE",
"`  c #AEAEAE",
"'  c gray64",
"]  c #9A9A9A",
"[  c #969595",
"{  c gray48",
"}  c #6F524C",
"|  c #D5CECD",
" . c #FDFDFD",
".. c #A7A7A7",
"X. c #8E8E8E",
"o. c #8D8D8D",
"O. c #767777",
"+. c #8C746F",
"@. c #EBE8E7",
"#. c #737171",
"$. c gray54",
"%. c #818181",
"&. c #727070",
"*. c #A3A2A2",
"=. c gray58",
"-. c gray51",
";. c #656A6A",
":. c #A6A8A9",
">. c #9F9F9F",
",. c #8B8B8B",
"<. c gray39",
"1. c #514847",
"2. c #9A736C",
"3. c #7C6E6B",
"4. c #777979",
"5. c #6C6D6D",
"6. c #444444",
"7. c #7B5F59",
"8. c #725853",
"9. c #887672",
"0. c #BBB6B5",
"q. c #B19792",
"w. c #E7E0DF",
"e. c #A1918D",
"r. c #E2DDDC",
"t. c #AB9E9C",
"y. c #E4E1E0",
"u. c #AEA4A2",
"i. c #E7E4E3",
"p. c #A59996",
"a. c #E2DEDD",
"s. c #AC9C99",
"d. c #EAE6E6",
"f. c #B9A9A5",
"g. c #F4F1F0",
"h. c #B6A4A0",
"j. c #F6F4F4",
"k. c #464645",
"l. c #65534E",
"z. c #B9A29E",
"x. c #6B534D",
"c. c #F2F0EF",
/* pixels */
"                              . .     X o                       ",
"                      O + X   @ # $ % & *                       ",
"                    * = - ; : > , < < 1 *                       ",
"                      2 ; 3 4 5 6 7 8 ; O                       ",
"                      * 9 0 9 q w e                             ",
"                          r t y u i p                           ",
"                          $ a s d f g                           ",
"                          h j k l z p                           ",
"                      * * 3 x q c v                             ",
"                      r   b n m M N 2 * *                       ",
"                    B   o V C Z q , i                           ",
"                    * A S D m F F V G H J                       ",
"                  *   K L Z m P > u I U Y   T                   ",
"                    T   R E M q W P Q ! ~                       ",
"                    *   ^ / Z P 5 W 6 ( )                       ",
". . . . . . . . . . _ _ ` ' ] P [ q { } | .  .. . . . . . . . . ",
". . . . . . . . . . _ . ..' ] Z X.o.O.+.@._ _ . . . . . . . . . ",
"                    *   #.' F o.W $.%.o   *                     ",
"                    *   &.*.Z F =.X.-.X   *                     ",
"                    *   ;.:.>.u 5 ,.<.*                         ",
"                    * 1.2.3.i 4.5.= 6.                          ",
"                      J 7.8.  9.0.                              ",
"                          0 * q.w.*                             ",
"                        T T   e.r.  0                           ",
"                          T   t.y.                              ",
"                              u.i.                              ",
"                              p.a.                              ",
"                              s.d.                              ",
"                            T f.g.                              ",
"                          T   h.j.                              ",
"                          k.l.z.. T                             ",
"                          ) x.c.. T                             "
};
