/* XPM */
static char *result[] = {
/* columns rows colors chars-per-pixel */
"32 32 108 2 ",
"   c #151313",
".  c #191614",
"X  c #1E1917",
"o  c #231B16",
"O  c #221D1B",
"+  c #2A211D",
"@  c #2B2521",
"#  c #2E2824",
"$  c #302A26",
"%  c #342E2A",
"&  c #37312D",
"*  c #3C332D",
"=  c #45372F",
"-  c #463D36",
";  c #483A32",
":  c #4A423B",
">  c #59483E",
",  c #674633",
"<  c #684330",
"1  c #6B4836",
"2  c #464646",
"3  c #554C43",
"4  c #5A4E46",
"5  c #514F4C",
"6  c #5D5447",
"7  c #55524F",
"8  c #5D5248",
"9  c #5A5652",
"0  c #665044",
"q  c #6A5648",
"w  c #65584D",
"e  c #6C594D",
"r  c #725C4E",
"t  c #7E5E4B",
"y  c #655850",
"u  c #6C5D52",
"i  c #6F6B5C",
"p  c #776052",
"a  c #7B6254",
"s  c #70655D",
"d  c #7D6558",
"f  c #7E695C",
"g  c #7F6C60",
"h  c #777363",
"j  c #7B7665",
"k  c #7E7867",
"l  c #85604C",
"z  c #89644F",
"x  c #866653",
"c  c #8C6550",
"v  c #8B6955",
"b  c #866C5C",
"n  c #916A54",
"m  c #926E59",
"M  c #94725D",
"N  c #99725B",
"B  c #816E61",
"V  c #857063",
"C  c #87796D",
"Z  c #8C7C6F",
"A  c #947562",
"S  c #9D7660",
"D  c #977965",
"F  c #9B7965",
"G  c #957D6C",
"H  c #9A7D69",
"J  c #8B7C71",
"K  c #907F73",
"L  c #A27A63",
"P  c #9B816F",
"I  c #8D8674",
"U  c #9A8473",
"Y  c #9C8678",
"T  c #968D7A",
"R  c #9E897A",
"E  c #A5826C",
"W  c #A28673",
"Q  c #A58875",
"!  c #AB8C77",
"~  c #A38D7C",
"^  c #AC8E79",
"/  c #B08F79",
"(  c #AD917D",
")  c #A59181",
"_  c #AC9584",
"`  c #AA9788",
"'  c #AD9989",
"]  c #B29683",
"[  c #B39986",
"{  c #B99B86",
"}  c #B69D8A",
"|  c #B89F8C",
" . c #BAA18E",
".. c #B7A291",
"X. c #BDA592",
"o. c #C0A795",
"O. c #C2A997",
"+. c #C5AC9A",
"@. c #C7B09E",
"#. c #C8B09E",
"$. c #C4B0A4",
"%. c #CDBAAC",
"&. c #CFBEB2",
"*. c #DDD7D4",
"=. c #E1D8D4",
"-. c #F3EFEC",
";. c #F4F0ED",
":. c white",
/* pixels */
"2 2 2 2 2 2 2 2 2 2 2 2 2 2 2 :.:.2 2 2 2 2 2 2 2 2 2 2 2 2 2 2 ",
"2 2 2 2 2 2 2 2 2 2 2 2 2 2 2 *.=.2 2 2 2 2 2 2 2 2 2 2 2 2 2 2 ",
"2 2 2 2 2 2 2 2 2 s f u q 0 a ( Q l r p a V J 2 2 2 2 2 2 2 2 2 ",
"2 2 2 2 2 2 2 2 2 g A H ! ( }  ... .] { { E Y 2 2 2 2 2 2 2 2 2 ",
"2 2 2 2 2 2 2 2 2 b D ^ } X.X.X.o.O.+.+.O./ U 2 2 2 2 2 2 2 2 2 ",
"2 2 2 2 2 2 2 2 2 j D ^  .X. .X.O.+.+.@.+./ U 2 2 2 2 2 2 2 2 2 ",
"2 2 2 2 2 2 2 2 2 V D ( .. .X.X.X.+.+.@.O./ U 2 2 2 2 2 2 2 2 2 ",
"2 2 2 2 2 2 2 2 2 r M ( } X.X.T I ..+.@.O./ Y 2 2 2 2 2 2 2 2 2 ",
"2 2 2 2 2 2 2 2 2 f m ! }  . .k i [ +.@.o.^ Y 2 2 2 2 2 2 2 2 2 ",
"2 2 2 2 2 2 2 2 2 B F Q [  .} j k _ +.@.+.^ Y 2 2 2 2 2 2 2 2 2 ",
"2 2 2 2 2 2 2 2 2 V L W _ } _ j h ~ +.@.o.^ Y 2 2 2 2 2 2 2 2 2 ",
"2 2 2 2 2 2 2 2 2 B N U [ [ ( 6 : U O.+.o./ ~ 2 2 2 2 2 2 2 2 2 ",
"2 2 2 2 2 2 2 2 2 g l M _ } Q 6 3 P ..+.../ ~ 2 2 2 2 2 2 2 2 2 ",
"2 2 2 2 2 2 2 2 2 V z t W ( ^ q r U _  .| ! ) 2 2 2 2 2 2 2 2 2 ",
"2 2 2 2 2 2 2 2 2 d z 1 z v c , < z N L H H ~ 2 2 2 2 2 2 2 2 2 ",
":.:.:.:.:.:.:.:.:.$.v l m N n N N N L L n _ %.:.:.:.:.:.:.:.:.:.",
":.:.:.:.:.:.:.:.:.&.D ! ! ! ^ ^ ( / ( { ^ +.%.:.:.:.:.:.:.:.:.:.",
"2 2 2 2 2 2 2 2 2 C H ~ } | o...o.o.+.+.] $.' 2 2 2 2 2 2 2 2 2 ",
"2 2 2 2 2 2 2 2 2 J W G Q R ) ) _ _ {  .Q X.' 2 2 2 2 2 2 2 2 2 ",
"2 2 2 2 2 2 2 2 2 J ) @ O . @ % & & & # ; y R 2 2 2 2 2 2 2 2 2 ",
"2 2 2 2 2 2 2 2 2 J [ *   O - 4 8 8 w # o @ Z 2 2 2 2 2 2 2 2 2 ",
"2 2 2 2 2 2 2 2 2 J [ =   X : 3 4 8 u # o X J 2 2 2 2 2 2 2 2 2 ",
"2 2 2 2 2 2 2 2 2 J [ > % X # # $ % $   + + K 2 2 2 2 2 2 2 2 2 ",
"2 2 2 2 2 2 2 2 2 J ..] H X.X.X.O.O.X.X.( ~ _ 2 2 2 2 2 2 2 2 2 ",
"2 2 2 2 2 2 2 2 2 J X. .A X.+.+.+.+.+.@.+.@.' 2 2 2 2 2 2 2 2 2 ",
"2 2 2 2 2 2 2 2 2 J  .X.H | X.+.+.+.+.@.@.@.' 2 2 2 2 2 2 2 2 2 ",
"2 2 2 2 2 2 2 2 2 J X. .Q ^ X.O.+.+.+.@.@.@.' 2 2 2 2 2 2 2 2 2 ",
"2 2 2 2 2 2 2 2 2 C  . .[ D } ' ..X.X.+.+.+.` 2 2 2 2 2 2 2 2 2 ",
"2 2 2 2 2 2 2 2 2 C }  .| A W x E  .O.+.@.+.` 2 2 2 2 2 2 2 2 2 ",
"2 2 2 2 2 2 2 2 2 C } | } Q b G [  .X.X.X.X.) 2 2 2 2 2 2 2 2 2 ",
"2 2 2 2 2 2 2 2 2 5 9 9 9 9 9 -.;.9 9 9 9 9 7 2 2 2 2 2 2 2 2 2 ",
"2 2 2 2 2 2 2 2 2 2 2 2 2 2 2 :.:.2 2 2 2 2 2 2 2 2 2 2 2 2 2 2 "
};
