/* XPM */
static char *result[] = {
/* columns rows colors chars-per-pixel */
"32 32 104 2 ",
"   c black",
".  c #0F0B0A",
"X  c #140F0D",
"o  c #18120F",
"O  c #161415",
"+  c #1C1512",
"@  c #1F1B18",
"#  c #221D1A",
"$  c #2B2622",
"%  c #2D2825",
"&  c #352E2A",
"*  c #37312D",
"=  c #3C332D",
"-  c #3D3631",
";  c #3F3C35",
":  c #413933",
">  c #4C433C",
",  c #56443A",
"<  c #584B3E",
"1  c #6A4735",
"2  c #6D4B39",
"3  c #724D3A",
"4  c #75513D",
"5  c #514C42",
"6  c #594E47",
"7  c #5D5346",
"8  c #5F544C",
"9  c #665245",
"0  c #63584F",
"q  c #7B5440",
"w  c #7C5945",
"e  c #735C4D",
"r  c #7C5B4A",
"t  c #665A51",
"y  c #6C5D53",
"u  c #646153",
"i  c #6E695A",
"p  c #736257",
"a  c #746459",
"s  c #716B5C",
"d  c #757362",
"f  c #7D7866",
"g  c #86614C",
"h  c #8A654F",
"j  c #826554",
"k  c #8D6651",
"l  c #8F6A54",
"z  c #866C5B",
"x  c #8E6F5D",
"c  c #916750",
"v  c #936B55",
"b  c #916E59",
"n  c #8F715E",
"m  c #94725E",
"M  c #9C755D",
"N  c #806F63",
"B  c #857163",
"V  c #887567",
"C  c #8A7668",
"Z  c #807D6A",
"A  c #937664",
"S  c #997560",
"D  c #957967",
"F  c #9A7A66",
"G  c #967D6B",
"H  c #9C7D69",
"J  c #A37B64",
"K  c #A17E69",
"L  c #84826F",
"P  c #9D816E",
"I  c #9B8473",
"U  c #A4836D",
"Y  c #AE846B",
"T  c #A28571",
"R  c #AC8770",
"E  c #A68875",
"W  c #AB8A75",
"Q  c #A58D7B",
"!  c #AB8E7A",
"~  c #B08E78",
"^  c #AC917E",
"/  c #B2927D",
"(  c #A69382",
")  c #AD9482",
"_  c #AD9986",
"`  c #AF9B89",
"'  c #B29682",
"]  c #B29986",
"[  c #BA9982",
"{  c #B59D8A",
"}  c #B89F8B",
"|  c #BBA18D",
" . c #BDA592",
".. c #BFA896",
"X. c #C0A793",
"o. c #C2A996",
"O. c #C4AC9A",
"+. c #C8AF9C",
"@. c #C7B09F",
"#. c #C8B19E",
"$. c #CDB5A2",
"%. c #D0B7A3",
"&. c #D2B9A5",
"*. c None",
/* pixels */
"*.*.*.*.*.*.*.*.*.*.*.*.*.*.*.*.*.*.*.*.*.*.*.*.*.*.*.*.*.*.*.*.",
"*.*.*.*.*.*.*.*.*.*.x r w 4 m U S g g b b H o.*.*.*.*.*.*.*.*.*.",
"*.*.*.*.*.*.*.*.*.W m T E / X.X.X.| / [ [ Y ] *.*.*.*.*.*.*.*.*.",
"*.*.*.*.*.*.*.*.*.K F }  .X.|  .X.O.+.#.$.! Y *.*.*.*.*.*.*.*.*.",
"*.*.*.*.*.*.*.*.*.U F ] | |  . .X.O.O.O.$.W E *.*.*.*.*.*.*.*.*.",
"*.*.*.*.*.*.*.*.*.T F } |  . ...O.O.O.O.@.! W *.*.*.*.*.*.*.*.*.",
"*.*.*.*.*.*.*.*.*.S G { |  .| _ ( ..O.@.@.~ W *.*.*.*.*.*.*.*.*.",
"*.*.*.*.*.*.*.*.*.k D ` `  .] L d { $...#.! ! *.*.*.*.*.*.*.*.*.",
"*.*.*.*.*.*.*.*.*.J A ) }  ._ s i ] +.#.+.! ! *.*.*.*.*.*.*.*.*.",
"*.*.*.*.*.*.*.*.*.R F ! ] | ^ f Z ( #.O.+.W ! *.*.*.*.*.*.*.*.*.",
"*.*.*.*.*.*.*.*.*.Y M ^ ] } Q i u Q +.+.O.W ' *.*.*.*.*.*.*.*.*.",
"*.*.*.*.*.*.*.*.*.U l Q ] ] I 5 ; I O.O.O.! ] *.*.*.*.*.*.*.*.*.",
"*.*.*.*.*.*.*.*.*.F 4 U ] } D < 7 G | ..O.W ' *.*.*.*.*.*.*.*.*.",
"*.*.*.*.*.*.*.*.*.Y q j E / T 9 e P ) | X.E ) *.*.*.*.*.*.*.*.*.",
"*.*.*.*.*.*.*.*.*.J 4 1 l k k 2 3 h M F m S ] *.*.*.*.*.*.*.*.*.",
"*.*.*.*.*.*.*.*.*.b j w v c k m J v M J g Q O.*.*.*.*.*.*.*.*.*.",
"*.*.*.*.*.*.*.*.*.F U / E E W W ! ! / / W O.O.*.*.*.*.*.*.*.*.*.",
"*.*.*.*.*.*.*.*.*.! A } |  ... .X.X.+.#.! O.O.*.*.*.*.*.*.*.*.*.",
"*.*.*.*.*.*.*.*.*.} A ( ] {  . .X.O.+.&.! O.$.*.*.*.*.*.*.*.*.*.",
"*.*.*.*.*.*.*.*.*.O.a + & # % * = = : - , a  .*.*.*.*.*.*.*.*.*.",
"*.*.*.*.*.*.*.*.*.o.P   O # : > > : > # + # C *.*.*.*.*.*.*.*.*.",
"*.*.*.*.*.*.*.*.*.O.I X O = a a y a C > o + N *.*.*.*.*.*.*.*.*.",
"*.*.*.*.*.*.*.*.*.+.B # O X $ % & = : . o . a *.*.*.*.*.*.*.*.*.",
"*.*.*.*.*.*.*.*.*.X.) e a y y t t 0 8 6 9 , I *.*.*.*.*.*.*.*.*.",
"*.*.*.*.*.*.*.*.*.| #.W ^ &.$.$.%.$.&.&.O.O.$.*.*.*.*.*.*.*.*.*.",
"*.*.*.*.*.*.*.*.*. .o.) D ......o.O.O.O.O.O.o.*.*.*.*.*.*.*.*.*.",
"*.*.*.*.*.*.*.*.*.|  .| D } ..o.O.O.O.O.$.O.O.*.*.*.*.*.*.*.*.*.",
"*.*.*.*.*.*.*.*.*. . .| H ^ ..O.o.o.O.O.O.O.O.*.*.*.*.*.*.*.*.*.",
"*.*.*.*.*.*.*.*.*.|  . .E I } (  .X.o.O.O.O.O.*.*.*.*.*.*.*.*.*.",
"*.*.*.*.*.*.*.*.*.| }  .' m A w K | o.O.O.O.O.*.*.*.*.*.*.*.*.*.",
"*.*.*.*.*.*.*.*.*.| | | } T z T |  ...o.O.O.O.*.*.*.*.*.*.*.*.*.",
"*.*.*.*.*.*.*.*.*.*.*.*.*.*.*.*.*.*.*.*.*.*.*.*.*.*.*.*.*.*.*.*."
};
