/* XPM */
static char *result[] = {
/* columns rows colors chars-per-pixel */
"32 32 80 1 ",
"  c #2E3232",
". c #3D3B3B",
"X c #4B4D4D",
"o c #505151",
"O c gray34",
"+ c #5B5351",
"@ c #5F5F5F",
"# c #78564C",
"$ c #675855",
"% c #6B5C5A",
"& c #715753",
"* c #7A5750",
"= c #7A5A55",
"- c #5F6465",
"; c #696767",
": c #676969",
"> c #686868",
", c gray42",
"< c #6C6B6A",
"1 c #6F6F6F",
"2 c #7C6965",
"3 c #736A69",
"4 c gray45",
"5 c gray46",
"6 c #757676",
"7 c #797878",
"8 c #797979",
"9 c #797A7A",
"0 c gray48",
"q c #7A7B7B",
"w c #7C7C7C",
"e c #83584F",
"r c #895F57",
"t c #84615C",
"y c #95675E",
"u c #806D69",
"i c #976D68",
"p c #808080",
"a c gray51",
"s c #838282",
"d c #848484",
"f c gray52",
"g c #888888",
"h c #898989",
"j c gray54",
"k c #8B8A8A",
"l c #8D8D8D",
"z c #8E8E8E",
"x c #8F8E8E",
"c c #8E8F8F",
"v c gray56",
"b c #958482",
"n c #918C8B",
"m c #988A89",
"M c #909090",
"N c gray57",
"B c #939391",
"V c #929292",
"C c #939393",
"Z c gray58",
"A c #959595",
"S c gray59",
"D c #979797",
"F c #999595",
"G c #9A9797",
"H c #989898",
"J c gray60",
"K c #99999A",
"L c #9B9B9B",
"P c #9B9D9D",
"I c gray62",
"U c #9E9E9F",
"Y c #9FA0A0",
"T c gray63",
"R c #A1A2A3",
"E c #A2A2A2",
"W c gray64",
"Q c #A4A4A4",
"! c #A7A7A7",
"~ c None",
/* pixels */
"~~~~~~~~~~~~~~~~~~~~~~~~~~~~~~~~",
"~~~~~~~~~~~~~~~~~~~~~~~~~~~~~~~~",
"~~~~~~~~~~~~~~~~~~~~~~~~~~~~~~~~",
"~~~~~~~~~~~~~~~~#~~~~~~~~~~~~~~~",
"~~~~~~~~~~~~~~~~~~~~~~~~~~~~~~~~",
"~~~~~~~~~~~~~~~~~~~~~~~~~~~~~~~~",
"~~~~~~~~~~~~~~~~~~~~~~~~~~~~~~~~",
"~~~~~~~~~~~~~~~~~~~~~~~~~~~~~~~~",
"~~~~~~~~~~~~~~~~~~~~~~~~~~~~~~~~",
"~~~~~~~~~~~~~y~~=~~~~~~~~~~~~~~~",
"~~~~~~~~~~~~*$o>60~~~~~~~~~~~~~~",
"~~~~~~~~~~~~~:dVM!k~~~~~~~~~~~~~",
"~~~~~~~~~~~~~7MZAJRu~~~~~~~~~~~~",
"~~~~~~~~~~~~~8hzlDP2~~~~~~~~~~~~",
"~~~~~~~~~~~~~5lvDHY3~~~~~~~~~~~~",
"~~~~~~~~~~~~~5VSNHT~~~~~~~~~~~~~",
"~~~~~~~~~~~~~1MvZLJ~~~~~~~~~~~~~",
"~~~~~~~~~~~~~>MMCIj~~~~~~~~~~~~~",
"~~~~~~~~~~~~~@vACWa~~~~~~~~~~~~~",
"~~~~~~~~~~~~&OgSDQp~~~~~~~~~~~~~",
"~~~~~~~~~~~~eXsADE,~~~~~~~~~~~~~",
"~~~~~~~~~~~~~~9SZU<~~~~~~~~~~~~~",
"~~~~~~~~~~~~~~;xCc+r~~~~~~~~~~~~",
"~~~~~~~~~~~~~~tmFi~~~~~~~~~~~~~~",
"~~~~~~~~~~~~~~%nGb~~~~~~~~~~~~~~",
"~~~~~~~~~~~~~~ qK-~~~~~~~~~~~~~~",
"~~~~~~~~~~~~~~~4z.~~~~~~~~~~~~~~",
"~~~~~~~~~~~~~~Bwf8~~~~~~~~~~~~~~",
"~~~~~~~~~~~~~~~~~~~~~~~~~~~~~~~~",
"~~~~~~~~~~~~~~~~~~~~~~~~~~~~~~~~",
"~~~~~~~~~~~~~~~~~~~~~~~~~~~~~~~~",
"~~~~~~~~~~~~~~~~~~~~~~~~~~~~~~~~"
};
