/* XPM */
static char *result[] = {
/* columns rows colors chars-per-pixel */
"32 32 142 2 ",
"   c #464646",
".  c #474646",
"X  c white",
"o  c #F2F0EF",
"O  c #6B534D",
"+  c #474545",
"@  c #B9A29E",
"#  c #65534E",
"$  c #464645",
"%  c #F6F4F4",
"&  c #B6A4A0",
"*  c #F4F1F0",
"=  c #B9A9A5",
"-  c #EAE6E6",
";  c #AC9C99",
":  c #E2DEDD",
">  c #A59996",
",  c #E7E4E3",
"<  c #AEA4A2",
"1  c #E4E1E0",
"2  c #AB9E9C",
"3  c gray27",
"4  c #E2DDDC",
"5  c #A1918D",
"6  c gray28",
"7  c #E7E0DF",
"8  c #B19792",
"9  c #BBB6B5",
"0  c #887672",
"q  c #725853",
"w  c #7B5F59",
"e  c #484646",
"r  c #444444",
"t  c gray31",
"y  c #6C6D6D",
"u  c #777979",
"i  c #5C5D5D",
"p  c #7C6E6B",
"a  c #9A736C",
"s  c #514847",
"d  c gray39",
"f  c #8B8B8B",
"g  c gray57",
"h  c #908F8F",
"j  c #9F9F9F",
"k  c #A6A8A9",
"l  c #656A6A",
"z  c gray30",
"x  c gray51",
"c  c #8E8E8E",
"v  c gray58",
"b  c gray59",
"n  c #979797",
"m  c #A3A2A2",
"M  c #727070",
"N  c #494949",
"B  c #818181",
"V  c gray54",
"C  c gray56",
"Z  c #8D8D8D",
"A  c gray64",
"S  c #737171",
"D  c #FEFEFE",
"F  c #EBE8E7",
"G  c #8C746F",
"H  c #767777",
"J  c #9A9A9A",
"K  c #A7A7A7",
"L  c #FDFDFD",
"P  c #D5CECD",
"I  c #6F524C",
"U  c gray48",
"Y  c #959595",
"T  c #969595",
"R  c #929292",
"E  c #AEAEAE",
"W  c #4C4544",
"Q  c gray47",
"!  c #A4A4A4",
"~  c gray44",
"^  c #474645",
"/  c #414242",
"(  c #727373",
")  c gray60",
"_  c gray63",
"`  c #7C7C7C",
"'  c #63534F",
"]  c #84625A",
"[  c #656668",
"{  c #939393",
"}  c #989898",
"|  c gray65",
" . c gray36",
".. c #584D4B",
"X. c #696867",
"o. c #909090",
"O. c #A0A09F",
"+. c #848484",
"@. c #4C4B4B",
"#. c #888888",
"$. c #9B9B9B",
"%. c #484747",
"&. c #4C4C4C",
"*. c #888787",
"=. c #A4A3A3",
"-. c #6A6A6A",
";. c #484848",
":. c #7A7E7E",
">. c #979798",
",. c #A0A3A4",
"<. c gray33",
"1. c #434444",
"2. c #857371",
"3. c #969292",
"4. c #959493",
"5. c #9B8B89",
"6. c #4D4C4C",
"7. c #3E4040",
"8. c #8D6964",
"9. c #9B9593",
"0. c #999291",
"q. c #A0746E",
"w. c #4B4B4B",
"e. c #9B9A9A",
"r. c #969494",
"t. c gray21",
"y. c gray50",
"u. c #4E4E4E",
"i. c gray29",
"p. c gray37",
"a. c #606060",
"s. c gray26",
"d. c gray25",
"f. c #535353",
"g. c #797979",
"h. c #656565",
"j. c #555555",
"k. c #5B5B5B",
"l. c #686868",
"z. c gray93",
"x. c gray90",
"c. c #515151",
/* pixels */
"                            . X o O +                           ",
"                            . X @ # $                           ",
"                              % &   .                           ",
"                              * = .                             ",
"                              - ;                               ",
"                              : >                               ",
"                              , <                               ",
"                              1 2   .                           ",
"                          3   4 5   . .                         ",
"                            6 7 8 6 3                           ",
"                              9 0   q w e                       ",
"                          r t y u i p a s 6                     ",
"                        6 d f g h j k l   6                     ",
"                    6   z x c v b n m M   6                     ",
"                    6   N B V C Z b A S   6                     ",
"X X X X X X X X X D D F G H Z c n J A K X D X X X X X X X X X X ",
"X X X X X X X X X L X P I U Y T R J A E D D X X X X X X X X X X ",
"                      + W Q C g R n ! ~   6                     ",
"                      ^ / ( R C Y ) _ `   .                     ",
"                  .   ' ] [ h { R } n |  .  6                   ",
"                      e ..X.o.b b } O.+.@.6                     ",
"                          i #.Y n $.o.N   %.                    ",
"                      6 6 &.*.) } =.-.  ;.                      ",
"                            :.>.Y ,.<.6 6                       ",
"                          1.2.3.4.5.6.                          ",
"                          7.8.9.0.q.w.                          ",
"                          1.i h e.r.;.                          ",
"                            t.y.Y u.3 u.6                       ",
"                      i.p.a.s.Q g d.<.p.&.                      ",
"                      6 f.g.g.#.{ h.p.j.t 6                     ",
"                      6 k.l.w.z.x.  z c.i.                      ",
"                      N z     X X                               "
};
