/* XPM */
static char *result[] = {
/* columns rows colors chars-per-pixel */
"32 32 142 2 ",
"   c #464646",
".  c white",
"X  c #FEFEFE",
"o  c #5E504D",
"O  c #5F4F4B",
"+  c #474646",
"@  c #CFC3C1",
"#  c #64524E",
"$  c #4F4846",
"%  c #464545",
"&  c #F6F5F5",
"*  c #B8A6A1",
"=  c #E8E3E2",
"-  c #C7B7B4",
";  c #484747",
":  c #EAE6E6",
">  c #C7BAB7",
",  c #EEEBEA",
"<  c #C6B9B6",
"1  c #ECE8E7",
"2  c #C3B3B0",
"3  c #444444",
"4  c gray28",
"5  c #F0EAE9",
"6  c #C9B3AE",
"7  c #5D4F4C",
"8  c #7E5D57",
"9  c #DCD5D4",
"0  c #A48E8A",
"q  c #434242",
"w  c #75554F",
"e  c #655754",
"r  c #4C4D4D",
"t  c #747474",
"y  c #757676",
"u  c #686868",
"i  c #494949",
"p  c #474342",
"a  c #676969",
"s  c #848484",
"d  c #929292",
"f  c gray57",
"g  c #A7A7A7",
"h  c #888787",
"j  c #797878",
"k  c #8E8E8E",
"l  c gray58",
"z  c #959595",
"x  c #979797",
"c  c #A1A2A3",
"v  c #766663",
"b  c #474443",
"n  c #484848",
"m  c #797979",
"M  c #888888",
"N  c #8D8D8D",
"B  c #9B9D9D",
"V  c #7A6864",
"C  c #474241",
"Z  c gray46",
"A  c gray55",
"S  c gray56",
"D  c #9FA0A0",
"F  c #665F5F",
"G  c #464443",
"H  c #FDFDFD",
"J  c gray79",
"K  c #939393",
"L  c gray59",
"P  c #9A9A9A",
"I  c gray63",
"U  c #CCCDCE",
"Y  c #DADADA",
"T  c #6F6F6F",
"R  c #909090",
"E  c gray61",
"W  c gray60",
"Q  c gray84",
"!  c #646464",
"~  c gray62",
"^  c #868686",
"/  c #434344",
"(  c gray36",
")  c gray64",
"_  c gray44",
"`  c #64524F",
"'  c gray34",
"]  c gray53",
"[  c #A4A4A4",
"{  c gray40",
"}  c #4F4847",
"|  c #6B514B",
" . c #494A4A",
".. c #838282",
"X. c #989898",
"o. c #A2A2A2",
"O. c gray39",
"+. c gray27",
"@. c #797A7A",
"#. c #9C9C9D",
"$. c #6C6B6A",
"%. c #4B4544",
"&. c #434444",
"*. c #696767",
"=. c #8F8E8E",
"-. c #8E8F8F",
";. c #514D4C",
":. c #805C55",
">. c #4C4645",
",. c #404343",
"<. c #82605B",
"1. c #988A89",
"2. c #999595",
"3. c #976D68",
"4. c #424444",
"5. c #514642",
"6. c #4C4442",
"7. c #655857",
"8. c #918C8B",
"9. c #9B9898",
"0. c #948381",
"q. c #464747",
"w. c #3A3C3C",
"e. c #7A7B7B",
"r. c #99999A",
"t. c #585C5D",
"y. c #4C4C4C",
"u. c #565656",
"i. c #5F5F5F",
"p. c gray45",
"a. c #414040",
"s. c #5B5B5B",
"d. c gray31",
"f. c #717171",
"g. c #7D7D7B",
"h. c gray33",
"j. c #4B4B4B",
"k. c gray32",
"l. c #656565",
"z. c #F4F4F4",
"x. c #ECECEC",
"c. c #4E4E4E",
/* pixels */
"                              . X                               ",
"                              X . o O   +                       ",
"                              . @ # $ %                         ",
"                              & *                               ",
"                              = - + ;                           ",
"                              : >                               ",
"                          %   , <                               ",
"                              1 2   +                           ",
"                          3 4 5 6 4 ;                           ",
"                        7 8   9 0                               ",
"                      q w e r t y u i                           ",
"                      % p a s d f g h 4                         ",
"                        4 j k l z x c v b 4                     ",
"                        n m M k N x B V C   %                   ",
"                        4 Z A S x x D F G 4                     ",
". . . . . . . . . . H . J Z K L f P I U . H . . . . . . . . . . ",
". . . . . . . . . . X . Y T R S l E W Q X H . . . . . . . . . . ",
"                        3 ! R f l ~ ^ 3                         ",
"                        / ( S L z ) _   4                       ",
"                      + ` ' ] L W [ { 4 n                       ",
"                      } |  ...x X.o.O.  4                       ",
"                      +   +.@.x l #.$.%.                        ",
"                          &.*.=.K -.;.:.>.+                     ",
"                      +.  ,.<.1.2.3.4.5.6.                      ",
"                        4   7.8.9.0.q.                          ",
"                        +.  w.e.r.t.  y.                        ",
"                        u.i.4 p.k a.u.s.i                       ",
"                      4 d.f.g.K K O.( h.j.                      ",
"                      4 k.l.y.z.x.+.y.c.i                       ",
"                        j.    . .                               ",
"                            4 X X   4                           ",
"                              . .                               "
};
