/* XPM */
static char *result[] = {
/* columns rows colors chars-per-pixel */
"32 32 192 2 ",
"   c #464646",
".  c #434343",
"X  c #323330",
"o  c #292926",
"O  c #767673",
"+  c #2A2A27",
"@  c #3C3C3C",
"#  c gray27",
"$  c gray24",
"%  c #4E533D",
"&  c #98A470",
"*  c #B9C789",
"=  c #B6C487",
"-  c #747C56",
";  c #393B33",
":  c #61674A",
">  c #B7C588",
",  c #828C60",
"<  c #616848",
"1  c #636B4A",
"2  c #A6B27B",
"3  c #A2AE78",
"4  c #3C3E35",
"5  c #444444",
"6  c #393B34",
"7  c #9DA974",
"8  c #96A16F",
"9  c #0C0D09",
"0  c black",
"q  c #3A3E2B",
"w  c #666E4E",
"e  c #373735",
"r  c #3F4233",
"t  c #5A6143",
"y  c #0A0807",
"u  c #523E37",
"i  c #775B51",
"p  c #6E544B",
"a  c #2F2420",
"s  c #231A18",
"d  c #0E0A09",
"f  c #14160F",
"g  c #9CA874",
"h  c #8E996A",
"j  c #292A26",
"k  c #513D37",
"l  c #AF8577",
"z  c #B88C7D",
"x  c #B78B7C",
"c  c #AE8576",
"v  c #AD8375",
"b  c #88675C",
"n  c #6C524A",
"m  c #1F1815",
"M  c #020201",
"N  c #020202",
"B  c #8D9868",
"V  c #919C6B",
"C  c #73584E",
"Z  c #B78C7D",
"A  c #A98173",
"S  c #6C5249",
"D  c #684F47",
"F  c #261D1A",
"G  c #191311",
"H  c #0D0A09",
"J  c #B38474",
"K  c #AE7C6B",
"L  c #B38373",
"P  c #B68879",
"I  c #A77F71",
"U  c #A37C6F",
"Y  c #816258",
"T  c #56423B",
"R  c #201816",
"E  c #040303",
"W  c #B78A7B",
"Q  c #AB7765",
"!  c #A87361",
"~  c #AD7A69",
"^  c #AA7664",
"/  c #AF7D6C",
"(  c #B6897A",
")  c #B68A7C",
"_  c #A0796C",
"`  c #4C3A34",
"'  c #060504",
"]  c #A87260",
"[  c #B48575",
"{  c #B48677",
"}  c #A77260",
"|  c #A36B58",
" . c #AE7C6C",
".. c #AF7E6E",
"X. c #B38575",
"o. c #AA8173",
"O. c #241C19",
"+. c #B58778",
"@. c #B38475",
"#. c #B48676",
"$. c #AC7968",
"%. c #AA7564",
"&. c #AC7867",
"*. c #B28879",
"=. c #2A211D",
"-. c #B28373",
";. c #AC7A68",
":. c white",
">. c #F9F9F9",
",. c #6B6E5F",
"<. c #757572",
"1. c #A17161",
"2. c #8C5A49",
"3. c #895948",
"4. c #8B5D4D",
"5. c #201611",
"6. c #9C6E5E",
"7. c #956656",
"8. c #A57768",
"9. c #885949",
"0. c #1D120E",
"q. c #9B6C5C",
"w. c #B18475",
"e. c #845545",
"r. c #A07262",
"t. c #8C5C4C",
"y. c #916353",
"u. c #A17363",
"i. c #AD7F70",
"p. c #966656",
"a. c #946657",
"s. c #AE8172",
"d. c #A27465",
"f. c #976A5A",
"g. c #946353",
"h. c #996A5A",
"j. c #906252",
"k. c #201511",
"l. c #AB7967",
"z. c #B18778",
"x. c #B68979",
"c. c #404336",
"v. c #A7B37E",
"b. c #3C3F2F",
"n. c #3B2F2C",
"m. c #58453F",
"M. c #7B5E55",
"N. c #997062",
"B. c #A36F5D",
"V. c #A97563",
"C. c #B18271",
"Z. c #2D2420",
"A. c #828B63",
"S. c #858F65",
"D. c #2D2E2B",
"F. c #454542",
"G. c #5C5E53",
"H. c #444441",
"J. c #393939",
"K. c #383432",
"L. c #3F3330",
"P. c #6F4F44",
"I. c #744C3F",
"U. c #936352",
"Y. c #AC7967",
"T. c #B3887A",
"R. c #433A36",
"E. c #53554C",
"W. c #54564D",
"Q. c #404140",
"!. c gray22",
"~. c gray21",
"^. c #362F2C",
"/. c #3A2B28",
"(. c #7B5142",
"). c #A5715F",
"_. c #B18171",
"`. c #A46C59",
"'. c #B48A7B",
"]. c #5F5552",
"[. c #B4B4B4",
"{. c #3C2D28",
"}. c #3D2D27",
"|. c #785042",
" X c #86594A",
".X c #9B6D5D",
"XX c #323232",
"oX c #2F2F2F",
"OX c #3A3331",
"+X c #473834",
"@X c #473934",
"#X c #464342",
/* pixels */
"            . X o o o o o o o O O o o o o o o o + @ #           ",
"          $ % & * * * * * * * * * * * * * * * * = - ; #         ",
"        $ : > , < < < < < < < < < < < < < < < < 1 2 3 4 5       ",
"      # 6 7 8 9 0 0 0 0 0 0 0 0 0 0 0 0 0 0 0 0 0 q * w e       ",
"      # r > t y u i p a s d 0 0 0 0 0 0 0 0 0 0 0 f g h j       ",
"      5 r * q k l z x c v b n m m M 0 0 0 0 0 0 0 N B V o       ",
"      5 r * q C z z z z z z Z A A S D F G H 0 0 0 N B V o       ",
"      5 r * q C z z J K K L P z z z z I U Y T R E N B V o       ",
"      5 r * q C z W Q ! ~ ^ ! / / P ( z z z ) _ ` ' B V o       ",
"      5 r * q C z P ] [ z ( { } | ] !  ...X.z z o.O.B V o       ",
"      5 r * q C z P ! +.z z z K | @.#.$.%.&.W z *.=.B V o       ",
"      5 r * q C z P ! +.z z z K | W z z x K -.z *.=.B V o       ",
"      5 r * q C z P ! +.z z z K | W z z z K ;.z *.=.B V o       ",
"      5 r * q C z P ! +.z z z K | W z z z K ;.z *.=.B V o       ",
"      5 r * q C z P ! +.z z z K | W z z z K ;.z *.=.B V o       ",
":.:.:.>.,.* q C z P ! +.z z z K | W z z z K ;.z *.=.B V <.:.:.:.",
":.:.:.>.,.* q C z P ! +.z z z K | W z z z K ;.z *.=.B V <.:.:.:.",
"      5 r * q C z P ! +.z z z K | W z z z K ;.z *.=.B V o       ",
"      5 r * q C z P ! +.z z z K | W z z z 1.2.3.4.5.B V o       ",
"      5 r * q C z P ! +.z z z K | W z z z 6.7.8.9.0.B V o       ",
"      5 r * q C z P ! +.z z z K | W z z z q.7.w.e.0.B V o       ",
"      5 r * q C z P ! +.z z z K | W z z z r.6.t.y.0.B V o       ",
"      5 r * q C z P ! +.z z z K | W z z z u.i.p.a.0.B V o       ",
"      5 r * q C z P ! +.z z z K | W z z z u.s.d.f.0.B V o       ",
"      5 r * q C z P ! +.z z z K | W z z z 1.g.h.j.k.B V o       ",
"      5 r * q C z P ! +.z z z K | W z z z K l.x z.=.B V o       ",
"      5 r * q C z x.! K W z z K | W z z z K ;.z *.=.B V o       ",
"      # c.v.b.n.m.M.N.B.V.C.+.K | W z z z K ;.z *.Z.A.S.D.      ",
"        F.G.H.J.J.K.L.P.I.U.] Q | W z z x Y.;.z T.R.E.W.Q.      ",
"                    5 !.~.^./.(.(.).! _.~ `.;.z '.].            ",
"                            # [.[.{.}.|. X.XJ z '.].            ",
"                              :.:.    XXoXOX+X+X@X#X            "
};
