/* XPM */
static char *result[] = {
/* columns rows colors chars-per-pixel */
"32 32 148 2 ",
"   c #464646",
".  c gray26",
"X  c #272727",
"o  c #222222",
"O  c #7C7C7C",
"+  c gray24",
"@  c #393A36",
"#  c #4A4F39",
"$  c #9BA672",
"%  c #AAB77E",
"&  c #5B6144",
"*  c #393B32",
"=  c gray25",
"-  c #444444",
";  c #333430",
":  c #78805A",
">  c #B4C185",
",  c #A5B27B",
"<  c #A2AF78",
"1  c #B3C185",
"2  c #919C6C",
"3  c #474B3A",
"4  c #393939",
"5  c #6C7550",
"6  c #B9C789",
"7  c #7C855C",
"8  c #0D0E0A",
"9  c black",
"0  c #575D40",
"q  c #B5C386",
"w  c gray14",
"e  c #34362D",
"r  c #A1AD77",
"t  c #B3C085",
"y  c #494E36",
"u  c #171210",
"i  c #55413A",
"p  c #7F6156",
"a  c #6C5249",
"s  c #211916",
"d  c #050303",
"f  c #202318",
"g  c #A5B27A",
"h  c #B2BF84",
"j  c #484D39",
"k  c #313429",
"l  c #98A370",
"z  c #12120D",
"x  c #261D1A",
"c  c #957165",
"v  c #B18779",
"b  c #B88C7D",
"n  c #B58A7B",
"m  c #A17B6E",
"M  c #4A3832",
"N  c #070605",
"B  c #6E7752",
"V  c #596042",
"C  c #95A06E",
"Z  c #1A1712",
"A  c #8D6B60",
"S  c #AD8375",
"D  c #68704D",
"F  c #1D1915",
"G  c #9D786B",
"H  c #B78A7B",
"J  c #AC7A68",
"K  c #AA7664",
"L  c #AB7766",
"P  c #B48676",
"I  c #2E231F",
"U  c #B0806F",
"Y  c #A7715E",
"T  c #AD7B6A",
"R  c #AE7C6B",
"E  c #A66F5D",
"W  c #A36B58",
"Q  c #A97463",
"!  c #B88B7C",
"~  c #B6897A",
"^  c #A87361",
"/  c #B18171",
"(  c #A97462",
")  c #B58777",
"_  c #A7715F",
"`  c #B48575",
"'  c #B68979",
"]  c #B38474",
"[  c #A7705E",
"{  c #B38373",
"}  c white",
"|  c #585A4F",
" . c #E9E9E9",
".. c #B48778",
"X. c #956250",
"o. c #966655",
"O. c #996A5A",
"+. c #261B17",
"@. c #B28677",
"#. c #916151",
"$. c #926252",
"%. c #8F5E4E",
"&. c #90604F",
"*. c #1F120E",
"=. c #845342",
"-. c #A87A6B",
";. c #B28576",
":. c #835241",
">. c #8E5E4E",
",. c #A37565",
"<. c #875646",
"1. c #9A6A5B",
"2. c #B28676",
"3. c #B68A7A",
"4. c #A07161",
"5. c #9C6D5D",
"6. c #B38677",
"7. c #91604F",
"8. c #996959",
"9. c #9A6B5A",
"0. c #211511",
"q. c #A46E5C",
"w. c #AE7E6E",
"e. c #B38777",
"r. c #2D221E",
"t. c #B68879",
"y. c #A6705E",
"u. c #A66F5C",
"i. c #A97563",
"p. c #A87260",
"a. c #A56E5C",
"s. c #A46C5A",
"d. c #A6705D",
"f. c #B78B7C",
"g. c #33352A",
"h. c #B2BF85",
"j. c #8F9B6C",
"k. c #14130F",
"l. c #392D28",
"z. c #41332E",
"x. c #40312C",
"c. c #3B2922",
"v. c #3B2821",
"b. c #46332C",
"n. c #3E2E28",
"m. c #13100E",
"M. c #666E4D",
"N. c #585E42",
/* pixels */
"          . X o o o o o o o o O O o o o o o o o o o +           ",
"        @ # $ % % % % % % % % % % % % % % % % % % % & * =       ",
"    - ; : > , < < < < < < < < < < < < < < < < < < < 1 2 3 .     ",
"    4 5 6 7 8 9 9 9 9 9 9 9 9 9 9 9 9 9 9 9 9 9 9 9 0 q < w     ",
"    e r t y 9 u i p p p p p p p p p p p p p p a s d f g h j .   ",
"    k 6 l z x c v b b b b b b b b b b b b b b n m M N B 6 V =   ",
"    k 6 C Z A b b b b b b b b b b b b b b b b b b S x D 6 V =   ",
"    k 6 C F G b b H J K K K K K K K K K K L P b b b I D 6 V =   ",
"    k 6 C F G b b U Y T R R R E W T R R R Q L ! b b I D 6 V =   ",
"    k 6 C F G b ~ ^ / b b b b ( W ! b b b ) _ ` b b I D 6 V =   ",
"    k 6 C F G b ' Y ] b b b b ( W ! b b b ~ [ { b b I D 6 V =   ",
"    k 6 C F G b ' Y ] b b b b ( W ! b b b ~ [ { b b I D 6 V =   ",
"    k 6 C F G b ' Y ] b b b b ( W ! b b b ~ [ { b b I D 6 V =   ",
"    k 6 C F G b ' Y ] b b b b ( W ! b b b ~ [ { b b I D 6 V =   ",
"    k 6 C F G b ' Y ] b b b b ( W ! b b b ~ [ { b b I D 6 V =   ",
"} } | 6 C F G b ' Y ] b b b b ( W ! b b b ~ [ { b b I D 6 V  .} ",
"} } | 6 C F G b ' Y ] b b b b ( W ! b b b ..X.o.O.O.+.D 6 V  .} ",
"    k 6 C F G b ' Y ] b b b b ( W ! b b b @.#.$.%.&.*.D 6 V =   ",
"    k 6 C F G b ' Y ] b b b b ( W ! b b b @.=.-.;.:.*.D 6 V =   ",
"    k 6 C F G b ' Y ] b b b b ( W ! b b b @.>.O.O.>.*.D 6 V =   ",
"    k 6 C F G b ' Y ] b b b b ( W ! b b b @.O.,.<.1.*.D 6 V =   ",
"    k 6 C F G b ' Y ] b b b b ( W ! b b b @.O.2.#.1.*.D 6 V =   ",
"    k 6 C F G b ' Y ] b b b b ( W ! b b b @.O.3.4.5.*.D 6 V =   ",
"    k 6 C F G b ' Y ] b b b b ( W ! b b b 6.7.8.9.$.0.D 6 V =   ",
"    k 6 C F G b ' Y ] b b b b ( W ! b b b ' q.w.e.e.r.D 6 V =   ",
"    k 6 C F G b ' Y ] b b b b ( W ! b b b ~ [ { b b I D 6 V =   ",
"    k 6 C F G b ' Y ] b b b b ( W ! b b b ~ [ { b b I D 6 V =   ",
"    k 6 C F G b ' Y ] b b b b ( W ! b b b ~ [ { b b I D 6 V =   ",
"    k 6 C F G b ' [ { b b b b ( W ! b b b t.y.{ b b I D 6 V =   ",
"    k 6 C F G b ' y.u.` b b b ( W ! b b ~ i.W { b b I D 6 V =   ",
"    k 6 C F G b b / p.a.[ [ [ s.W d.[ [ E y.T f.b b I D 6 V =   ",
"    g.h.j.k.l.z.z.z.x.c.v.v.v.b.b.v.v.v.v.n.z.z.z.z.m.M.h.N.=   "
};
