/* XPM */
static char *result[] = {
/* columns rows colors chars-per-pixel */
"32 32 96 2 ",
"   c #010101",
".  c #090503",
"X  c #0D0907",
"o  c #0F0C0A",
"O  c #110D0B",
"+  c #0F110B",
"@  c #1C1513",
"#  c #181C13",
"$  c #201312",
"%  c #211917",
"&  c #241B18",
"*  c #291F1C",
"=  c #1D2216",
"-  c #22271A",
";  c #2D211E",
":  c #2A2E1E",
">  c #362925",
",  c #3E302A",
"<  c #383D2A",
"1  c #452C24",
"2  c #4C342C",
"3  c #53362C",
"4  c #4A3932",
"5  c #5D3F35",
"6  c #5D473F",
"7  c #50573C",
"8  c #545B3E",
"9  c #794A3B",
"0  c #604640",
"q  c #7A5041",
"w  c #72574E",
"e  c #73594E",
"r  c #775850",
"t  c #795952",
"y  c #5D6445",
"u  c #646B4A",
"i  c #6F7852",
"p  c #707753",
"a  c #717953",
"s  c #855443",
"d  c #895746",
"f  c #86594A",
"g  c #8A5B4B",
"h  c #8C5F50",
"j  c #8E6152",
"k  c #826358",
"l  c #956453",
"z  c #996654",
"x  c #966758",
"c  c #936B5E",
"v  c #9B6D5D",
"b  c #A26956",
"n  c #A46D5A",
"m  c #A6705E",
"M  c #AA725F",
"N  c #8E6D60",
"B  c #967266",
"V  c #9E7264",
"C  c #9A7669",
"Z  c #A57362",
"A  c #AA7563",
"S  c #AB7867",
"D  c #AE7D6C",
"F  c #B17763",
"G  c #B37A66",
"H  c #B47D6B",
"J  c #A67E71",
"K  c #848E61",
"L  c #899365",
"P  c #8C9668",
"I  c #8F996A",
"U  c #B0806F",
"Y  c #AD8375",
"T  c #B38575",
"R  c #B98776",
"E  c #B48778",
"W  c #B68A7B",
"Q  c #B98C7D",
"!  c #9DA974",
"~  c #A1AD77",
"^  c #A9B77E",
"/  c #AAB87F",
"(  c #B98E80",
")  c #BD9182",
"_  c #ADBB81",
"`  c #C49686",
"'  c #CB9B8A",
"]  c #D09F8D",
"[  c #B6C487",
"{  c #B9C789",
"}  c #BAC98A",
"|  c #C6D492",
" . c #CCDB97",
".. c #CDDC98",
"X. c #D4E49D",
"o. c None",
/* pixels */
"o.o.o.o.o.o.o.o.= # # # # # # # # # # # # # # # # o.o.o.o.o.o.o.",
"o.o.o.o.o.o.7 ~ } { } { { { { { { } } } } { { } [ u o.o.o.o.o.o.",
"o.o.o.o.o.u ..L p a a a a a a a a i i i i a i i a | I o.o.o.o.o.",
"o.o.o.o.: { !                                     y X.7 o.o.o.o.",
"o.o.o.o.8 ..<   r C N , > .       . .     .   .   + [ L o.o.o.o.",
"o.o.o.o.7 ..# 6 ' ( ) ` ` B w * %                   / L o.o.o.o.",
"o.o.o.o.7 ..- t ` E W ( W ` ` Q W t t ; @           _ L o.o.o.o.",
"o.o.o.o.7 ..= t ` ( T A A T W ( ( ` ` Q Q k 6 o     _ L o.o.o.o.",
"o.o.o.o.7 ..= r ` W A n D m m S D W E ( Q ` ` Y >   _ L o.o.o.o.",
"o.o.o.o.7 ..= t ` W n W ) W E n b n n S S W E ` Y O / L o.o.o.o.",
"o.o.o.o.7 ..- r ` E n W Q Q ( S n E W A n D Q Q Y O / L o.o.o.o.",
"o.o.o.o.7 ..# r ` E n W ( W ( A n W ( ( Q A W ( Y o / L o.o.o.o.",
"o.o.o.o.7 ..= r ` W n W W W ( A n W Q Q ( A D ) Y o _ L o.o.o.o.",
"o.o.o.o.7 ..= r ` W n W ( W ( A n E Q Q W A D ) Y o ^ L o.o.o.o.",
"o.o.o.o.7 ..= t ` E n W ( Q ( A n Q W Q ( A D ) Y o ^ L o.o.o.o.",
"o.o.o.o.7 ..= t ` W n R ( W ( A n E Q Q ( Z D ) Y O ^ L o.o.o.o.",
"o.o.o.o.7 ..& r ` E n W Q Q ( A n W Q Q Q Z U ) Y o / L o.o.o.o.",
"o.o.o.o.7 ..= t ` E m E Q Q ( A n W Q Q Q m U ) Y O / L o.o.o.o.",
"o.o.o.o.7 ..= r ` W n E Q Q ( A n Q Q W Q x s s f . / L o.o.o.o.",
"o.o.o.o.7 ..= r ` E m E Q W ( S n W Q W ) g v D 9 . _ L o.o.o.o.",
"o.o.o.o.7 ..# r ' E n W Q W ( A b Q Q E Q g v T 9 . / L o.o.o.o.",
"o.o.o.o.7 ..- r ` E n E Q Q ( A n E W Q Q v V d j . / L o.o.o.o.",
"o.o.o.o.7 ..= r ` W m W Q Q ( A n W Q Q Q v E l g . _ L o.o.o.o.",
"o.o.o.o.7 ..= r ` W n W Q Q ( A n Q Q Q Q x T A g . _ L o.o.o.o.",
"o.o.o.o.7 ..= t ` E n E ) Q ) A n Q Q E Q l l Z j X _ L o.o.o.o.",
"o.o.o.o.7  .= r ` E n E Q E Q S n Q Q Q Q A Y ) E O ^ L o.o.o.o.",
"o.o.o.o.7 X.= t ] ) F A ) Q ( A b Q Q Q Q A D ) Y o _ I o.o.o.o.",
"o.o.o.o.7 | - > 4 r V A G R Q S n W Q W Q A H ) Y o _ K o.o.o.o.",
"o.o.o.o.o.o.o.o.o.o.o.2 1 q z F M Q Q Q T b U Q Y o.o.o.o.o.o.o.",
"o.o.o.o.o.o.o.o.o.o.o.o.o.o.$ 3 3 l z H G b E ` ) o.o.o.o.o.o.o.",
"o.o.o.o.o.o.o.o.o.o.o.o.o.o.o.o.o.o.O 3 6 x E Y J o.o.o.o.o.o.o.",
"o.o.o.o.o.o.o.o.o.o.o.o.o.o.o.o.o.o.o.o.o.o.% & & o.o.o.o.o.o.o."
};
