/* XPM */
static char *result[] = {
/* columns rows colors chars-per-pixel */
"32 32 246 2 ",
"   c black",
".  c #000100",
"X  c #010001",
"o  c #010101",
"O  c #020000",
"+  c #030000",
"@  c #000200",
"#  c #000201",
"$  c #020202",
"%  c #040000",
"&  c #070000",
"*  c #030402",
"=  c #040403",
"-  c #080203",
";  c #090304",
":  c #0B0507",
">  c #0B0607",
",  c #0C0607",
"<  c #080806",
"1  c #0A0A07",
"2  c #0E0809",
"3  c #0F080A",
"4  c #10080A",
"5  c #10090A",
"6  c #1A110E",
"7  c #1D1615",
"8  c #1E1715",
"9  c #1E1716",
"0  c #1E1917",
"q  c #201816",
"w  c #201916",
"e  c #212419",
"r  c #232619",
"t  c #23251A",
"y  c #22261A",
"u  c #23261A",
"i  c #22271A",
"p  c #24251A",
"a  c #272A1D",
"s  c #292C1E",
"d  c #292D1E",
"f  c #292D1F",
"g  c #3B2D28",
"h  c #41322C",
"j  c #474D35",
"k  c #4C5037",
"l  c #774534",
"z  c #784735",
"x  c #565D40",
"c  c #6E534A",
"v  c #72564D",
"b  c #5E6646",
"n  c #717954",
"m  c #8A5746",
"M  c #895847",
"N  c #895949",
"B  c #8E5A48",
"V  c #8C5C4C",
"C  c #8D5D4C",
"Z  c #8E5D4D",
"A  c #8E5E4D",
"S  c #8F604F",
"D  c #906050",
"F  c #916150",
"G  c #926251",
"H  c #956655",
"J  c #956656",
"K  c #9A6452",
"L  c #9A6553",
"P  c #9B6553",
"I  c #9B6653",
"U  c #9B6654",
"Y  c #976858",
"T  c #996A59",
"R  c #996A5A",
"E  c #996B5B",
"W  c #9B6D5C",
"Q  c #9E6F5F",
"!  c #A26A57",
"~  c #A46955",
"^  c #A56A56",
"/  c #A36B58",
"(  c #A36B59",
")  c #A36C59",
"_  c #A46C59",
"`  c #A46C5A",
"'  c #A56D5A",
"]  c #A46D5B",
"[  c #A56D5B",
"{  c #A56E5B",
"}  c #A56E5C",
"|  c #A56F5C",
" . c #A66F5D",
".. c #A86F5C",
"X. c #A6705D",
"o. c #A7715E",
"O. c #A7715F",
"+. c #A9705D",
"@. c #A9715E",
"#. c #AA725F",
"$. c #936F64",
"%. c #957065",
"&. c #957165",
"*. c #9B7569",
"=. c #9B7669",
"-. c #A27161",
";. c #A07262",
":. c #A37262",
">. c #A57767",
",. c #A87361",
"<. c #AA7564",
"1. c #AA7665",
"2. c #A57768",
"3. c #A7796A",
"4. c #AD7B6A",
"5. c #AE7C6B",
"6. c #A97C6C",
"7. c #A97C6D",
"8. c #AE7C6C",
"9. c #AE7D6C",
"0. c #AF7D6D",
"q. c #AC7F6F",
"w. c #AF7E6E",
"e. c #768158",
"r. c #778258",
"t. c #788159",
"y. c #788359",
"u. c #78835A",
"i. c #78845A",
"p. c #79845B",
"a. c #79855B",
"s. c #7B845B",
"d. c #7A855C",
"f. c #7B865C",
"g. c #7C865C",
"h. c #808B5F",
"j. c #808C5F",
"k. c #818D60",
"l. c #828C60",
"z. c #848D61",
"x. c #849062",
"c. c #859063",
"v. c #889265",
"b. c #AB8071",
"n. c #AD8070",
"m. c #AC8071",
"M. c #AE8171",
"N. c #AC8375",
"B. c #AF8577",
"V. c #AF8677",
"C. c #B38170",
"Z. c #B28272",
"A. c #B38373",
"S. c #B48271",
"D. c #B38474",
"F. c #B38575",
"G. c #B08677",
"H. c #B38677",
"J. c #B48575",
"K. c #B48676",
"L. c #B48677",
"P. c #B08778",
"I. c #B58778",
"U. c #B58878",
"Y. c #B58879",
"T. c #B68979",
"R. c #B4897A",
"E. c #B5897A",
"W. c #B6897A",
"Q. c #B48A7A",
"!. c #B48A7B",
"~. c #B58A7B",
"^. c #B68A7A",
"/. c #B68A7B",
"(. c #B78A7B",
"). c #B78B7B",
"_. c #B78B7C",
"`. c #B78B7D",
"'. c #B78C7D",
"]. c #B78C7E",
"[. c #B88878",
"{. c #B88978",
"}. c #B88979",
"|. c #B98A7A",
" X c #B88B7C",
".X c #B88C7C",
"XX c #B88C7D",
"oX c #B88D7D",
"OX c #B98D7D",
"+X c #BA8D7D",
"@X c #B88D7E",
"#X c #B98D7E",
"$X c #B88D7F",
"%X c #B98D7F",
"&X c #BA8D7E",
"*X c #BB8D7E",
"=X c #B98E7E",
"-X c #B98E7F",
";X c #BA8E7F",
":X c #BB8F7F",
">X c #9CA874",
",X c #9FAB76",
"<X c #A0AC77",
"1X c #A1AD77",
"2X c #A1AE77",
"3X c #A9B67D",
"4X c #B98E80",
"5X c #BA8E80",
"6X c #BA8F80",
"7X c #BB8F80",
"8X c #BB8F81",
"9X c #BB9081",
"0X c #BB9082",
"qX c #BD9080",
"wX c #BC9081",
"eX c #BD9081",
"rX c #BC9181",
"tX c #BE9181",
"yX c #BF9282",
"uX c #BE9384",
"iX c #ADBB80",
"pX c #AEBB81",
"aX c #AFBC81",
"sX c #AFBC82",
"dX c #B0BD82",
"fX c #C09282",
"gX c #C19383",
"hX c #B5C386",
"jX c #B8C789",
"kX c #BAC88A",
"lX c #BFCC8D",
"zX c #C2D090",
"xX c #C3D190",
"cX c #C4D291",
"vX c #C6D593",
"bX c #C7D693",
"nX c #C7D694",
"mX c #C8D794",
"MX c #CBDA96",
"NX c #CCDC97",
"BX c #CDDC98",
"VX c #CDDD98",
"CX c #D1E09B",
"ZX c #D6E69F",
"AX c #D6E79F",
"SX c None",
/* pixels */
"SXSXSXSXSXSX$ $ $ $ $ $ $ $ $ $ $ $ $ $ $ $ $ $ $ $ SXSXSXSXSXSX",
"SXSXSXSXSXj >X2X<X1X1X1X1X1X1X1X1X1X1X1X1X1X1X<X1X,Xk SXSXSXSXSX",
"SXSXSXSXl.VXpXdXdXaXsXaXaXaXsXaXaXsXaXaXaXsXaXdXdXpXBXv.SXSXSXSX",
"SXSXSXx ZXt.1 @ @ = * * * * * * * * * * * * = # . < n AXb SXSXSX",
"SXSXr 3XkXa   8 c =.$.%.%.%.&.%.%.&.%.%.%.$.*.v q   e hXiXs SXSX",
"SXSXy bXz.  g _.gXyXfXfXfXfXfXfXfXfXfXfXfXfXyXgX#Xh X s.MXf SXSX",
"SXSXp xXk.> !.qX~._.].].].].].'.'.].].].].].`.~.:X=X2 y.nXs SXSX",
"SXSXt cXh., ~.XXXX(.1.X.O.o.o.,.,.o.o.O.X.<.(.XXXX=X4 r.mXs SXSX",
"SXSXt cXh.> Q.#X-X0./ 5.4.5.4./ / 4.5.4.9._ 5.-XXXoX3 r.mXs SXSX",
"SXSXt cXh.> !.;X(.} Z.0X4X6X6X .{ -X6X4X0XD.] W.#X#X3 r.mXs SXSX",
"SXSXt cXh.> !.;XW._ D.#X_.XX X| [ ).XX_.#XK./ Y.%X#X3 r.mXs SXSX",
"SXSXt cXh.> !.;X^.` D.-X.XXXXX| [ _.XX.X%XJ.) Y.#X#X3 r.mXs SXSX",
"SXSXt cXh.> !.;X^._ D.-X.XXXXX| [ _.XX.X%XJ.) Y.#X#X3 r.mXs SXSX",
"SXSXt cXh.> !.;X^._ D.-X.XXXXX| [ _.XXXX%XJ.) Y.#X#X3 r.mXs SXSX",
"SXSXt cXh.> !.;X^._ D.-X.XXXXX| [ _.XXXX-XJ./ I.XXXX3 r.mXs SXSX",
"SXSXt cXh.> !.;X^._ D.-X.XXXXX| [ _.XXXX%XK.' &XuXrX5 r.mXs SXSX",
"SXSXt cXh.> !.;X^._ D.-X.XXXXX| [ _.XX_.5XM.B A F Y ; u.mXs SXSX",
"SXSXt cXh.> !.;X^._ D.-X.XXXXX| [ _.XX_.9X6.N S D M + d.mXs SXSX",
"SXSXt cXh.> !.;X^._ D.-X.XXXXX| [ _.XX_.7Xq.l 9XXXz & p.mXs SXSX",
"SXSXt cXh.> !.;X^._ D.-X.XXXXX| [ _.XX_.8X7.V Y Y C % a.mXs SXSX",
"SXSXt cXh.> !.;X^._ D.-X.XXXXX| [ _.XX_.wX3.;.2.M W O d.mXs SXSX",
"SXSXt cXh.> !.;X^._ D.-X.XXXXX| [ _.XX_.wX3.Q H.Z T + d.mXs SXSX",
"SXSXt cXh.> !.;X^._ D.-X.XXXXX| [ _.XX_.wX3.E /.>.H O d.mXs SXSX",
"SXSXt cXh.> !.;X^._ D.-X.XXXXX| [ _.XX_.6Xn.m J R G - i.mXs SXSX",
"SXSXt cXh.> !.;X^._ D.-X.XXXXX| [ _.XXXX%XK._ T.-X7X5 r.mXs SXSX",
"SXSXt cXh.> !.;X^._ D.-X.XXXXX| [ _.XXXX-XJ.( Y.#XoX3 r.mXs SXSX",
"SXSXt cXh.> !.;X^._ A.-X.XXXXX| [ _.XXXX%XF.( Y.#XOX3 r.mXs SXSX",
"SXSXt cXh.> !.;X^.` J.-X_.XX.X| [ _.XX_.#XL.) Y.#X#X3 r.mXs SXSX",
"SXSXt cXh.> R.#XE./ 8.4X@X@X@X} ] XX$X@X4Xw.! U.#XoX3 r.mXs SXSX",
"SXSXi zXj., oXtX*X#.~ C.|.{.}.+...[.}.|.S.^ @.+XeXqX4 e.vXs SXSX",
"SXSXu NXc.: N.G.B.m.:.L P P P I U P P P K -.b.V.B.P.2 f.CXs SXSX",
"SXSXp jXx.o 8 8 7 9 0 6 6 6 6 6 6 6 6 6 6 9 9 7 8 w o g.lXd SXSX"
};
